<?xml version="1.0" standalone="no"?>
<!DOCTYPE svg PUBLIC "-//W3C//DTD SVG 1.1//EN" "http://www.w3.org/Graphics/SVG/1.1/DTD/svg11.dtd" >
<svg xmlns="http://www.w3.org/2000/svg">
<metadata>Generated by IcoMoon</metadata>
<defs>
<font id="newhrms" horiz-adv-x="1024">
<font-face units-per-em="1024" ascent="960" descent="-64" />
<missing-glyph horiz-adv-x="1024" />
<glyph unicode="&#x20;" horiz-adv-x="512" d="" />
<glyph unicode="&#xe900;" horiz-adv-x="1286" d="M155.902 346.166c-13.673-0.265-24.656-11.412-24.656-25.124s10.983-24.859 24.631-25.124h282.672c13.673 0.265 24.656 11.412 24.656 25.124s-10.983 24.859-24.631 25.124h-0.025z" />
<glyph unicode="&#xe901;" horiz-adv-x="1286" d="M159.627 230.571c-1.056 0.156-2.274 0.245-3.514 0.245-14.011 0-25.369-11.358-25.369-25.369s11.358-25.369 25.369-25.369c1.239 0 2.458 0.089 3.65 0.261l-0.136-0.016h324.634c1.056-0.156 2.274-0.245 3.514-0.245 14.011 0 25.369 11.358 25.369 25.369s-11.358 25.369-25.369 25.369c-1.239 0-2.458-0.089-3.65-0.261l0.136 0.016z" />
<glyph unicode="&#xe902;" horiz-adv-x="1286" d="M1261.236 551.168c-13.878 0-25.129-11.25-25.129-25.129v0-89.533c-0.066-51.439-41.748-93.121-93.181-93.187h-143.21c-0.009 0-0.020 0-0.031 0-6.931 0-13.207-2.806-17.754-7.345v0l-173.597-173.588v155.804c0 0.003 0 0.006 0 0.009 0 13.873-11.246 25.12-25.12 25.12-0.003 0-0.006 0-0.009 0h-359.712c-51.441 0.061-93.126 41.746-93.187 93.181v380.064c0.066 51.438 41.749 93.118 93.181 93.178h719.44c51.438-0.061 93.121-41.741 93.187-93.172v-89.547c-0.003-0.141-0.004-0.306-0.004-0.473 0-13.878 11.25-25.129 25.129-25.129s25.129 11.25 25.129 25.129c0 0.166-0.002 0.332-0.005 0.497v-0.025 89.541c-0.096 79.177-64.258 143.335-143.427 143.426h-719.443c-79.162-0.111-143.304-64.262-143.4-143.417v-322.785h-182.906c-53.649-0.066-97.123-43.539-97.188-97.182v-231.551c0.066-53.649 43.539-97.123 97.182-97.188h76.85l124.487-124.487c4.548-4.551 10.833-7.366 17.775-7.366 13.878 0 25.129 11.25 25.129 25.129 0 0.008 0 0.015 0 0.023v-0.001 106.721h194.039c53.645 0.061 97.118 43.527 97.188 97.164v128.050h125.429v-191.407c0-0.010 0-0.022 0-0.034 0-13.873 11.246-25.12 25.12-25.12 6.943 0 13.228 2.817 17.775 7.37v0l209.146 209.191h132.809c79.18 0.091 143.344 64.255 143.435 143.426v89.542c-0.005 13.876-11.252 25.123-25.128 25.129v0zM582.419 165.055c-0.030-25.915-21.033-46.915-46.947-46.94h-219.143c-13.859-0.005-25.094-11.228-25.12-25.082v-71.244l-89.008 89.026c-4.548 4.549-10.831 7.362-17.771 7.362-0.004 0-0.009 0-0.013 0h-87.229c-25.89 0.030-46.875 20.993-46.94 46.872v231.551c0.030 25.912 21.028 46.91 46.937 46.94h182.909v-7.033c0.106-79.157 64.244-143.297 143.389-143.409h158.936z" />
<glyph unicode="&#xe903;" horiz-adv-x="1286" d="M1028.17 795.358h-489.944c-0.141 0.003-0.306 0.004-0.473 0.004-13.878 0-25.129-11.25-25.129-25.129s11.25-25.129 25.129-25.129c0.166 0 0.332 0.002 0.497 0.005h489.919c0.141-0.003 0.306-0.004 0.473-0.004 13.878 0 25.129 11.25 25.129 25.129s-11.25 25.129-25.129 25.129c-0.166 0-0.332-0.002-0.497-0.005h0.025z" />
<glyph unicode="&#xe904;" horiz-adv-x="1286" d="M1053.299 634.548c0 13.878-11.25 25.129-25.129 25.129v0h-489.944c-0.141 0.003-0.306 0.004-0.473 0.004-13.878 0-25.129-11.25-25.129-25.129s11.25-25.129 25.129-25.129c0.166 0 0.332 0.002 0.497 0.005h489.919c0.003 0 0.006 0 0.009 0 13.873 0 25.12 11.246 25.12 25.12v0z" />
<glyph unicode="&#xe905;" horiz-adv-x="1286" d="M538.253 524.004c-13.673-0.265-24.656-11.412-24.656-25.124s10.983-24.859 24.631-25.124h282.672c13.673 0.265 24.656 11.412 24.656 25.124s-10.983 24.859-24.631 25.124h-0.025z" />
<glyph unicode="&#xe906;" horiz-adv-x="1286" d="M1261.245 651.682c-13.878 0-25.129-11.25-25.129-25.129s11.25-25.129 25.129-25.129c13.878 0 25.129 11.25 25.129 25.129v0c-0.030 13.866-11.263 25.098-25.126 25.129h-0.003z" />
<glyph unicode="&#xe907;" horiz-adv-x="859" d="M580.885 705.459c-8.935 8.936-21.278 14.463-34.913 14.463-27.267 0-49.372-22.105-49.372-49.372 0-13.633 5.525-25.975 14.459-34.909l84.106-84.114c8.934-8.934 21.276-14.459 34.909-14.459s25.975 5.526 34.909 14.459l179.705 179.705c9.104 8.961 14.744 21.418 14.744 35.192 0 27.267-22.104 49.371-49.371 49.371-13.774 0-26.23-5.641-35.186-14.738l-0.006-0.006-19.818-19.849c-13.77 10.62-29.573 19.611-46.559 26.24l-1.299 0.446v22.504c-0.027 27.257-22.114 49.347-49.368 49.379h-154.81v17.132c-0.036 34.834-28.265 63.064-63.096 63.1h-172.651c-34.828-0.040-63.051-28.263-63.092-63.088v-71.295c0.027-19.347 15.704-35.024 35.048-35.051h228.732c19.347 0.027 35.024 15.704 35.051 35.048v24.113h154.807c10.67-0.013 19.316-8.659 19.329-19.328v-13.84c-11.339 2.394-24.368 3.765-37.717 3.765-105.378 0-190.803-85.426-190.803-190.803s85.426-190.803 190.803-190.803c13.349 0 26.378 1.371 38.953 3.979l-1.236-0.214v-457.112c-0.013-10.668-8.66-19.312-19.328-19.321h-608.454c-10.667 0.009-19.312 8.654-19.321 19.321v845.021c0.004 10.672 8.65 19.324 19.32 19.337h99.869c8.298 0 15.025 6.727 15.025 15.025s-6.727 15.025-15.025 15.025h-99.868c-27.253-0.040-49.333-22.131-49.355-49.384v-845.029c0.031-27.254 22.117-49.339 49.368-49.371h608.448c27.254 0.031 49.339 22.117 49.371 49.368v465.811c70.441 27.363 120.028 93.403 122.865 171.371l0.010 0.339c0.006 0.154 0.009 0.334 0.009 0.516 0 8.298-6.727 15.026-15.026 15.026-8.117 0-14.731-6.436-15.016-14.484l-0.001-0.026c-2.197-68.98-47.736-126.766-110.181-147.17l-1.131-0.32c-0.961-0.21-1.798-0.481-2.598-0.823l0.093 0.035c-14.013-4.423-30.129-6.971-46.839-6.971-88.834 0-160.848 72.014-160.848 160.848 0 88.814 71.981 160.815 160.787 160.848h0.003c0.005 0 0.012 0 0.018 0 35.417 0 68.155-11.471 94.701-30.9l-0.452 0.315-103.515-103.522zM472.975 825.617c0-2.767-2.243-5.010-5.010-5.010v0h-228.729c-2.767 0-5.010 2.243-5.010 5.010v0 71.283c0 18.271 14.811 33.082 33.082 33.082v0h172.616c18.271 0 33.082-14.811 33.082-33.082v0zM796.121 779.807c3.497 3.497 8.329 5.661 13.666 5.661 10.674 0 19.327-8.653 19.327-19.327 0-5.337-2.163-10.169-5.661-13.666v0l-179.721-179.705c-3.496-3.501-8.328-5.666-13.666-5.666s-10.17 2.165-13.666 5.666v0l-84.107 84.114c-3.497 3.498-5.659 8.329-5.659 13.666 0 10.675 8.654 19.329 19.329 19.329 5.339 0 10.172-2.164 13.67-5.663l59.823-59.823c2.719-2.725 6.48-4.412 10.633-4.412s7.914 1.686 10.633 4.411v0z" />
<glyph unicode="&#xe908;" horiz-adv-x="859" d="M408.875 582.907h-183.053c-8.296 0-15.021-6.725-15.021-15.021s6.725-15.021 15.021-15.021h183.053c8.296 0 15.021 6.725 15.021 15.021s-6.725 15.021-15.021 15.021v0z" />
<glyph unicode="&#xe909;" horiz-adv-x="859" d="M197.144 737.974h-101.081c-8.298 0-15.025-6.727-15.025-15.025s6.727-15.025 15.025-15.025v0h101.081c8.298 0 15.025 6.727 15.025 15.025s-6.727 15.025-15.025 15.025v0z" />
<glyph unicode="&#xe90a;" horiz-adv-x="859" d="M225.823 483.173h183.053c8.296 0 15.021 6.725 15.021 15.021s-6.725 15.021-15.021 15.021h-183.053c-8.296 0-15.021-6.725-15.021-15.021s6.725-15.021 15.021-15.021v0z" />
<glyph unicode="&#xe90b;" horiz-adv-x="859" d="M472.109 400.705h-246.286c-8.298 0-15.025-6.727-15.025-15.025s6.727-15.025 15.025-15.025v0h246.286c8.298 0 15.025 6.727 15.025 15.025s-6.727 15.025-15.025 15.025v0z" />
<glyph unicode="&#xe90c;" horiz-adv-x="859" d="M225.823 300.963h123.151c8.298 0 15.025 6.727 15.025 15.025s-6.727 15.025-15.025 15.025v0h-123.151c-8.298 0-15.025-6.727-15.025-15.025s6.727-15.025 15.025-15.025v0z" />
<glyph unicode="&#xe90d;" horiz-adv-x="859" d="M225.823 188.257h183.053c8.298 0 15.025 6.727 15.025 15.025s-6.727 15.025-15.025 15.025v0h-183.053c-8.298 0-15.025-6.727-15.025-15.025s6.727-15.025 15.025-15.025v0z" />
<glyph unicode="&#xe90e;" horiz-adv-x="859" d="M225.823 118.572h246.286c8.296 0 15.021 6.725 15.021 15.021s-6.725 15.021-15.021 15.021v0h-246.286c-8.296 0-15.021-6.725-15.021-15.021s6.725-15.021 15.021-15.021v0z" />
<glyph unicode="&#xe90f;" horiz-adv-x="859" d="M127.948 595.927c-33.496 0-60.65-27.154-60.65-60.65s27.154-60.65 60.65-60.65c33.496 0 60.65 27.154 60.65 60.65v0c-0.054 33.474-27.176 60.596-60.645 60.65h-0.005zM127.948 504.613c-16.918 0-30.632 13.714-30.632 30.632s13.714 30.632 30.632 30.632c16.918 0 30.632-13.714 30.632-30.632v0c-0.022-16.909-13.724-30.61-30.63-30.632h-0.002z" />
<glyph unicode="&#xe910;" horiz-adv-x="859" d="M127.948 411.512c-33.496 0-60.65-27.154-60.65-60.65s27.154-60.65 60.65-60.65c33.496 0 60.65 27.154 60.65 60.65v0c-0.058 33.473-27.177 60.592-60.644 60.65h-0.006zM127.948 320.19c-0.002 0-0.005 0-0.008 0-16.922 0-30.64 13.718-30.64 30.64s13.718 30.64 30.64 30.64c16.922 0 30.64-13.718 30.64-30.64 0-0.003 0-0.006 0-0.008v0c-0.022-16.909-13.724-30.61-30.63-30.632h-0.002z" />
<glyph unicode="&#xe911;" horiz-adv-x="859" d="M127.948 229.121c-33.496 0-60.65-27.154-60.65-60.65s27.154-60.65 60.65-60.65c33.496 0 60.65 27.154 60.65 60.65v0c-0.054 33.474-27.176 60.596-60.645 60.65h-0.005zM127.948 137.807c-16.918 0-30.632 13.714-30.632 30.632s13.714 30.632 30.632 30.632c16.918 0 30.632-13.714 30.632-30.632v0c-0.022-16.909-13.724-30.61-30.63-30.632h-0.002z" />
<glyph unicode="&#xe912;" d="M931.106 123.239c16.45 15.029 26.747 36.555 26.805 60.487v33.073c0 0.017 0 0.037 0 0.057 0 45.608-36.973 82.581-82.581 82.581-39.783 0-72.996-28.132-80.831-65.588l-0.094-0.537h-54.247c-6.916 19.394-25.121 33.025-46.511 33.025s-39.595-13.631-46.403-32.681l-0.107-0.344h-54.24c-6.852 32.441-31.971 57.56-63.87 64.315l-0.541 0.096v37.005c28.652 7.547 49.455 33.183 49.547 63.693v0.011h16.513c0.011 0 0.023 0 0.035 0 9.112 0 16.499 7.387 16.499 16.499 0 0.020 0 0.040 0 0.060v-0.003 49.547h33.034v33.006h-33.034v0.177c0.703 34.228 16.447 64.642 40.871 84.995l0.183 0.148c45.712 39.577 74.459 97.692 74.459 162.521 0 118.518-96.078 214.596-214.596 214.596-3.118 0-6.221-0.067-9.306-0.198l0.441 0.015c-112.769-6.155-202.327-97.38-205.811-210.279l-0.008-0.332c-0.023-1.181-0.037-2.572-0.037-3.967 0-64.147 28.206-121.706 72.892-160.952l0.241-0.208c24.73-21.121 40.755-51.809 42.304-86.264l0.009-0.259h-32.864v-32.998h33.034v-49.547c0-0.004 0-0.009 0-0.014 0-9.112 7.387-16.499 16.499-16.499 0.005 0 0.010 0 0.015 0h16.513c0.090-30.521 20.893-56.159 49.087-63.6l0.46-0.103v-37.047c-32.441-6.852-57.56-31.971-64.315-63.87l-0.096-0.541h-54.233c-6.916 19.394-25.121 33.025-46.511 33.025s-39.595-13.631-46.403-32.681l-0.107-0.344h-54.254c-7.97 37.942-41.158 66.021-80.904 66.021-45.592 0-82.554-36.946-82.581-82.532v-33.037c0.056-23.941 10.35-45.467 26.735-60.44l0.063-0.057c-54.87-22.694-92.787-75.77-92.859-137.711v-33.043c0-0.004 0-0.009 0-0.014 0-9.112 7.387-16.499 16.499-16.499 0.005 0 0.010 0 0.015 0h264.249c0.004 0 0.009 0 0.014 0 9.112 0 16.499 7.387 16.499 16.499 0 0.005 0 0.010 0 0.015v-0.001 33.034c-0.087 61.94-38.003 115.002-91.879 137.329l-0.987 0.362c16.45 15.029 26.747 36.555 26.805 60.487v16.524h52.563c6.916-19.394 25.121-33.025 46.511-33.025s39.595 13.631 46.403 32.681l0.107 0.344h52.591v-16.513c0.056-23.941 10.35-45.467 26.735-60.44l0.063-0.057c-54.861-22.69-92.775-75.753-92.859-137.681v-33.045c0-0.004 0-0.009 0-0.014 0-9.112 7.387-16.499 16.499-16.499 0.005 0 0.010 0 0.015 0h264.27c0.004 0 0.009 0 0.014 0 9.112 0 16.499 7.387 16.499 16.499 0 0.005 0 0.010 0 0.015v-0.001 33.034c-0.087 61.94-38.003 115.002-91.879 137.329l-0.987 0.362c16.45 15.029 26.747 36.555 26.805 60.487v16.524h52.577c6.916-19.394 25.121-33.025 46.511-33.025s39.595 13.631 46.403 32.681l0.107 0.344h52.591v-16.513c0.056-23.941 10.35-45.467 26.735-60.44l0.063-0.057c-54.861-22.69-92.775-75.753-92.859-137.681v-33.045c0-0.004 0-0.009 0-0.014 0-9.112 7.387-16.499 16.499-16.499 0.005 0 0.010 0 0.015 0h264.249c0.004 0 0.009 0 0.014 0 9.112 0 16.499 7.387 16.499 16.499 0 0.005 0 0.010 0 0.015v-0.001 33.034c-0.087 61.94-38.003 115.002-91.879 137.329l-0.987 0.362zM264.25-14.453v-16.485h-33.034v33.034h-33.034v-33.034h-99.094v33.034h-33.027v-33.034h-33.034v16.513c0 63.85 51.761 115.611 115.611 115.611s115.611-51.761 115.611-115.611v0zM99.095 183.736v33.062c0 27.364 22.183 49.547 49.547 49.547s49.547-22.183 49.547-49.547v0-33.034c0-27.364-22.183-49.547-49.547-49.547s-49.547 22.183-49.547 49.547v0zM330.317 200.25c-0.002 0-0.005 0-0.007 0-9.12 0-16.513 7.393-16.513 16.513s7.393 16.513 16.513 16.513c9.108 0 16.493-7.373 16.513-16.476v-0.002c0-0.008 0-0.018 0-0.028 0-9.12-7.393-16.513-16.513-16.513 0 0 0 0 0 0v0zM392.174 608.929c-38.002 33.372-61.86 82.059-61.86 136.318 0 1.192 0.012 2.382 0.034 3.568l-0.003-0.178c2.957 95.796 78.72 172.974 173.652 178.173l0.471 0.021c2.3 0.104 4.998 0.164 7.709 0.164 100.255 0 181.527-81.272 181.527-181.527 0-54.891-24.363-104.091-62.865-137.377l-0.231-0.195c-31.659-26.595-51.842-65.964-52.547-110.066l-0.002-0.12v-0.177h-132.312c-1.545 44.617-21.916 84.188-53.372 111.226l-0.203 0.171zM578.047 464.535v-33.034h-132.128v33.034zM478.952 398.474h66.061c0.002-0.144 0.004-0.314 0.004-0.484 0-18.244-14.79-33.034-33.034-33.034s-33.034 14.79-33.034 33.034c0 0.17 0.001 0.34 0.004 0.509v-0.026zM627.594-14.417v-16.52h-33.034v33.034h-33.027v-33.034h-99.094v33.034h-33.034v-33.034h-33.034v16.513c0 63.85 51.761 115.611 115.611 115.611s115.611-51.761 115.611-115.611v0zM462.439 183.772v33.027c0 27.364 22.183 49.547 49.547 49.547s49.547-22.183 49.547-49.547v0-33.034c0-27.364-22.183-49.547-49.547-49.547s-49.547 22.183-49.547 49.547v0zM693.661 200.285c-9.12 0-16.513 7.393-16.513 16.513s7.393 16.513 16.513 16.513c9.12 0 16.513-7.393 16.513-16.513v0c0-0.008 0-0.018 0-0.028 0-9.12-7.393-16.513-16.513-16.513-0.003 0-0.005 0-0.008 0v0zM825.79 183.772v33.027c0 27.364 22.183 49.547 49.547 49.547s49.547-22.183 49.547-49.547v0-33.034c0-27.364-22.183-49.547-49.547-49.547s-49.547 22.183-49.547 49.547v0zM990.945-30.938h-33.034v33.034h-33.034v-33.034h-99.094v33.034h-33.034v-33.034h-33.034v16.513c0 63.85 51.761 115.611 115.611 115.611s115.611-51.761 115.611-115.611v0z" />
<glyph unicode="&#xe913;" d="M478.952 563.601h66.061v-33.034h-66.061z" />
<glyph unicode="&#xe914;" d="M495.472 664.366v-34.683h33.034v34.683c10.976 2.303 20.683 6.502 29.241 12.274l-0.291-0.185 25.432-25.432 23.358 23.358-25.425 25.432c5.583 8.268 9.78 17.974 11.994 28.413l0.095 0.537h34.683v33.027h-34.683c-2.309 10.976-6.507 20.682-12.275 29.242l0.186-0.293 25.425 25.432-23.358 23.358-25.432-25.432c-8.267 5.588-17.974 9.786-28.415 11.995l-0.535 0.095v34.683h-33.034v-34.683c-10.979-2.303-20.688-6.502-29.248-12.275l0.291 0.185-25.432 25.432-23.358-23.358 25.432-25.432c-5.588-8.267-9.788-17.973-12.002-28.414l-0.095-0.536h-34.683v-33.034h34.683c2.308-10.976 6.509-20.683 12.282-29.241l-0.185 0.291-25.432-25.432 23.358-23.358 25.432 25.432c8.269-5.585 17.979-9.781 28.422-11.988l0.535-0.095zM511.986 794.824c27.364 0 49.547-22.183 49.547-49.547s-22.183-49.547-49.547-49.547c-27.364 0-49.547 22.183-49.547 49.547v0c0.036 27.35 22.198 49.511 49.544 49.547h0.003z" />
<glyph unicode="&#xe915;" glyph-name="Dots" d="M512-64c-62.838 0-113.778 50.94-113.778 113.778s50.94 113.778 113.778 113.778c62.838 0 113.778-50.94 113.778-113.778s-50.94-113.778-113.778-113.778zM512 334.222c-62.838 0-113.778 50.94-113.778 113.778s50.94 113.778 113.778 113.778c62.838 0 113.778-50.94 113.778-113.778s-50.94-113.778-113.778-113.778zM512 732.444c-62.838 0-113.778 50.94-113.778 113.778s50.94 113.778 113.778 113.778c62.838 0 113.778-50.94 113.778-113.778s-50.94-113.778-113.778-113.778z" />
<glyph unicode="&#xe916;" d="M1024 448c0-282.77-229.23-512-512-512s-512 229.23-512 512c0 282.77 229.23 512 512 512s512-229.23 512-512z" />
<glyph unicode="&#xe917;" d="M1016.686 448c0-278.73-225.955-504.686-504.686-504.686s-504.686 225.955-504.686 504.686c0 278.73 225.955 504.686 504.686 504.686s504.686-225.955 504.686-504.686z" />
<glyph unicode="&#xe918;" d="M474.726 430.519c84.178 1.886 151.695 70.572 151.695 155.026s-67.517 153.14-151.52 155.023l-0.175 0.003c-1.002 0.023-2.183 0.037-3.368 0.037-85.639 0-155.063-69.424-155.063-155.063s69.424-155.063 155.063-155.063c1.184 0 2.365 0.013 3.543 0.040l-0.175-0.003z" />
<glyph unicode="&#xe919;" d="M670.223 387.76c-9.087 19.815-19.808 36.893-32.423 52.365l0.343-0.434c-9.225 10.036-19.778 18.647-31.428 25.612l-0.638 0.354c-32.168-36.594-79.076-59.565-131.35-59.565s-99.182 22.971-131.182 59.369l-0.168 0.195c-12.294-7.318-22.852-15.929-31.99-25.866l-0.091-0.1c-34.762-44.646-57.515-100.202-62.551-160.789l-0.074-1.105c-0.069-1.116-0.108-2.42-0.108-3.733 0-18.339 7.651-34.892 19.935-46.64l0.024-0.023c25.98-16.808 80.955-39.687 193.975-39.687 35.681 0.143 70.685 2.36 105.084 6.538l-4.278-0.423c-11.283 18.789-18.060 41.409-18.329 65.592l-0.001 0.076c0.626 69.537 55.966 125.946 125.020 128.287l0.216 0.006z" />
<glyph unicode="&#xe91a;" d="M670.237 363.33c-57.362 0-103.863-46.501-103.863-103.863s46.501-103.863 103.863-103.863c57.362 0 103.863 46.501 103.863 103.863v0c0.002 0.258 0.004 0.562 0.004 0.867 0 56.885-46.115 103-103 103-0.305 0-0.609-0.001-0.913-0.004h0.047zM720.633 239.616h-39.717v-39.717c0-6.75-5.472-12.222-12.222-12.222s-12.222 5.472-12.222 12.222v0 39.717h-39.702c-6.75 0-12.222 5.472-12.222 12.222s5.472 12.222 12.222 12.222v0h39.717v39.702c0 6.75 5.472 12.222 12.222 12.222s12.222-5.472 12.222-12.222v0-39.717h39.717c6.548-0.472 11.743-5.667 12.212-12.172l0.002-0.043c0.001-0.053 0.001-0.115 0.001-0.177 0-6.649-5.39-12.039-12.039-12.039-0.062 0-0.124 0-0.186 0.001h0.009z" />
<glyph unicode="&#xe91b;" glyph-name="arrow-icon" d="M791.552 475.927l-468.899 468.713c-9.64 10.286-23.311 16.695-38.478 16.695-29.1 0-52.689-23.59-52.689-52.689 0-15.167 6.409-28.838 16.666-38.452l0.029-0.027 431.663-431.476-431.569-431.476c-10.286-9.64-16.695-23.311-16.695-38.478 0-29.1 23.59-52.689 52.689-52.689 15.167 0 28.838 6.409 38.452 16.666l0.027 0.029 468.806 468.713c9.412 9.583 15.222 22.731 15.222 37.236s-5.81 27.653-15.23 37.244l0.008-0.008z" />
<glyph unicode="&#xe91c;" d="M1024 448c0-282.77-229.23-512-512-512s-512 229.23-512 512c0 282.77 229.23 512 512 512s512-229.23 512-512z" />
<glyph unicode="&#xe91d;" d="M1016.686 448c0-278.73-225.955-504.686-504.686-504.686s-504.686 225.955-504.686 504.686c0 278.73 225.955 504.686 504.686 504.686s504.686-225.955 504.686-504.686z" />
<glyph unicode="&#xe91e;" d="M685.553 455.929c-6.271-0.457-11.246-5.432-11.7-11.662l-0.002-0.041v-70.393c0-90.721-73.544-164.264-164.264-164.264s-164.264 73.544-164.264 164.264v0 70.393c-0.462 6.299-5.482 11.289-11.753 11.701l-0.038 0.002c-6.271-0.457-11.246-5.432-11.7-11.662l-0.002-0.041v-70.393c0.387-99.489 77.615-180.819 175.395-187.738l0.601-0.034v-58.661h-58.661c-6.463 0-11.703-5.24-11.703-11.703s5.24-11.703 11.703-11.703h140.8c6.463 0 11.703 5.24 11.703 11.703s-5.24 11.703-11.703 11.703h-58.661v58.661c98.526 6.454 175.996 87.95 175.996 187.54 0 0.066 0 0.133 0 0.199v-0.010 70.437c-0.457 6.271-5.432 11.246-11.662 11.7l-0.041 0.002z" />
<glyph unicode="&#xe91f;" d="M509.557 244.663c0.222-0.001 0.485-0.002 0.748-0.002 70.87 0 128.322 57.452 128.322 128.322 0 0.263-0.001 0.526-0.002 0.789v-0.040 281.659c0 71.282-57.786 129.068-129.068 129.068s-129.068-57.786-129.068-129.068v0-281.6c-0.002-0.24-0.003-0.523-0.003-0.807 0-70.87 57.452-128.322 128.322-128.322 0.263 0 0.526 0.001 0.789 0.002h-0.041z" />
<glyph unicode="&#xe920;" d="M512 960c282.77 0 512-229.23 512-512s-229.23-512-512-512c-282.77 0-512 229.23-512 512v0c0 282.77 229.23 512 512 512v0z" />
<glyph unicode="&#xe921;" d="M730.624 490.816h-374.304l131.008 131.008c5.323 5.323 8.616 12.677 8.616 20.8 0 16.246-13.17 29.416-29.416 29.416-8.123 0-15.477-3.292-20.8-8.616l-181.12-181.216c-5.333-5.319-8.632-12.674-8.632-20.8s3.299-15.481 8.631-20.799l0.001-0.001 181.152-180.96c5.323-5.323 12.677-8.616 20.8-8.616 16.246 0 29.416 13.17 29.416 29.416 0 8.123-3.292 15.477-8.616 20.8v0l-131.040 130.816h374.4c16.224 0 29.376 13.152 29.376 29.376s-13.152 29.376-29.376 29.376v0z" />
<glyph unicode="&#xe922;" glyph-name="calendar-icon" d="M866.014-26.41h-708.029c-66.522 0.060-120.45 53.895-120.662 120.375v623.111c0.061 66.615 54.047 120.601 120.656 120.662h114.589v63.024c-0.007 0.206-0.011 0.449-0.011 0.692 0 11.032 8.376 20.107 19.115 21.214l0.091 0.008h2.346c5.925-0.010 11.282-2.435 15.141-6.343l0.002-0.002c3.922-3.926 6.347-9.348 6.347-15.336 0-0.101-0.001-0.202-0.002-0.302v0.015-62.97h388.912v63.024c-0.004 0.147-0.006 0.32-0.006 0.494 0 5.781 2.3 11.025 6.036 14.867l-0.005-0.005c3.879 3.98 9.265 6.474 15.234 6.558h0.389c5.867-0.056 11.159-2.472 14.981-6.343l0.002-0.002c3.922-3.926 6.347-9.348 6.347-15.336 0-0.101-0.001-0.202-0.002-0.302v0.015-62.97h118.316c66.61 0 120.609-53.998 120.609-120.609 0-0.019 0-0.037 0-0.056v0.003-623.091c-0.121-66.444-53.951-120.274-120.384-120.395h-0.012zM80.459 564.423v-470.491c0-0.032 0-0.069 0-0.107 0-42.827 34.703-77.549 77.524-77.58h708.085c42.643 0.151 77.153 34.755 77.153 77.419 0 0.038 0 0.075 0 0.113v-0.006 470.651zM157.986 794.71c-42.823-0.030-77.526-34.752-77.526-77.58 0-0.019 0-0.038 0-0.056v0.003-109.465h862.709v109.465c0 0.063 0 0.139 0 0.214 0 42.664-34.51 77.268-77.139 77.419h-118.277v-63.13c0-11.912-9.656-21.568-21.568-21.568s-21.568 9.656-21.568 21.568v0 63.13h-388.912v-63.13c0-11.912-9.656-21.568-21.568-21.568s-21.568 9.656-21.568 21.568v0 63.13z" />
<glyph unicode="&#xe923;" d="M1024 448c0-282.77-229.23-512-512-512s-512 229.23-512 512c0 282.77 229.23 512 512 512s512-229.23 512-512z" />
<glyph unicode="&#xe924;" d="M716.215 355.96l-72.624 35.973c-24.204 12.142-25.64 3.019-53.886-27.209-6.836-7.328-19.948-26.238-33.752-23.725-28.871 5.319-80.909 45.309-97.479 63.967-7.886 8.923-41.505 51.798-40.973 66.494 0.625 22.382 49.857 36.824 36.917 78.462l-28.606 74.1c-26.677 71.254-122.441-51.945-118.797-106.257 9.868-133.798 229.137-336.577 364.065-255.867 30.002 18.312 72.917 78.303 45.136 94.062z" />
<glyph unicode="&#xe925;" d="M1024 448c0-282.77-229.23-512-512-512s-512 229.23-512 512c0 282.77 229.23 512 512 512s512-229.23 512-512z" />
<glyph unicode="&#xe926;" d="M308.004 376.449l78.041 21.862c26.111 7.172 21.074 14.913 21.839 56.277 0.177 10.019-2.733 32.847 9.208 40.216 25.015 15.366 90.445 20.468 115.243 17.69 11.831-1.355 65.504-10.721 74.942-21.998 14.512-17.051-12.411-60.726 25.067-83.011l70.841-35.926c67.504-35.102 56.234 120.532 17.184 158.455-96.862 92.829-395.496 96.803-441.762-53.461-10.042-33.684-1.793-106.981 29.397-100.103z" />
<glyph unicode="&#xe927;" glyph-name="career-info-icon" d="M912.279 554.654l-0.158 0.683c-2.254 8.882-10.179 15.349-19.614 15.349-11.16 0-20.206-9.047-20.206-20.206 0-1.725 0.216-3.399 0.623-4.997l-0.030 0.14v-0.499c2.222-8.959 10.194-15.495 19.692-15.495 11.19 0 20.261 9.071 20.261 20.261 0 1.691-0.207 3.334-0.598 4.905l0.029-0.139zM377.2 302.907c-48.402 29.561-80.22 82.1-80.22 142.070 0 18.885 3.155 37.033 8.967 53.945l-0.349-1.167c0.67 1.923 1.056 4.139 1.056 6.446 0 11.155-9.043 20.197-20.197 20.197-8.848 0-16.367-5.689-19.098-13.609l-0.043-0.142c-6.797-19.585-10.723-42.158-10.723-65.648 0-74.577 39.567-139.912 98.854-176.158l0.904-0.514c2.977-1.824 6.581-2.904 10.437-2.904 11.16 0 20.207 9.047 20.207 20.207 0 7.304-3.875 13.703-9.681 17.253l-0.089 0.050zM603.897 594.905c-36.831 34.699-86.599 56.023-141.348 56.023-25.745 0-50.389-4.715-73.115-13.33l1.419 0.472c-7.751-2.94-13.16-10.304-13.16-18.931 0-11.154 9.042-20.196 20.196-20.196 2.527 0 4.946 0.464 7.175 1.312l-0.139-0.046c17.125 6.54 36.93 10.327 57.62 10.327 44.019 0 84.034-17.143 113.734-45.116l-0.084 0.078c3.607-3.404 8.484-5.496 13.85-5.496 11.156 0 20.2 9.044 20.2 20.2 0 5.79-2.436 11.011-6.339 14.694l-0.010 0.009zM1014.311 438.758h-151.998v41.8c0 20.301-16.458 36.759-36.759 36.759v0h-27.228c-34.551 156.024-171.713 270.988-335.727 270.988-21.761 0-43.050-2.024-63.688-5.894l2.129 0.332c-9.497-1.772-16.591-9.995-16.591-19.876 0-11.157 9.044-20.201 20.201-20.201 1.276 0 2.525 0.118 3.735 0.345l-0.125-0.019c16.343 3.125 35.141 4.913 54.356 4.913 141.63 0 260.574-97.131 293.852-228.413l0.45-2.096h-110.277c-20.301 0-36.759-16.458-36.759-36.759v0-41.879h-152.103c-11.145-0.015-20.176-9.046-20.191-20.19v-123.931c0-0.014 0-0.030 0-0.046 0-18.993 7.384-36.262 19.439-49.091l-0.035 0.038v-103.687c-164.927 3.204-297.398 137.657-297.398 303.050 0 21.48 2.234 42.438 6.483 62.654l-0.347-1.974c0.256 1.208 0.402 2.595 0.402 4.017 0 11.185-9.067 20.252-20.252 20.252-9.763 0-17.913-6.908-19.827-16.104l-0.023-0.131c-4.428-20.687-6.964-44.453-6.964-68.812 0-187.696 150.56-340.227 337.496-343.409l0.298-0.004v-73.019c0-1.971 0.124-3.914 0.365-5.819l-0.023 0.227c-230.886 3.083-416.869 190.972-416.869 422.299 0 75.35 19.733 146.091 54.312 207.338l-1.095-2.109 68.267-68.477c3.655-3.678 8.716-5.956 14.309-5.96h127.082l124.56-124.56c3.664-3.658 8.723-5.92 14.31-5.92 11.187 0 20.256 9.069 20.256 20.256 0 5.6-2.272 10.669-5.946 14.336v0l-124.56 124.56v127.081c0 0.004 0 0.008 0 0.012 0 5.586-2.268 10.641-5.933 14.297v0l-68.267 68.267c59.113 33.427 129.811 53.124 205.109 53.124 168.857 0 314.58-99.054 382.23-242.225l1.093-2.571c3.29-6.996 10.279-11.753 18.379-11.753 11.182 0 20.247 9.065 20.247 20.247 0 3.082-0.689 6.003-1.92 8.618l0.052-0.124c-75.327 159.639-234.959 268.131-419.931 268.131-86.666 0-167.77-23.817-237.122-65.263l2.113 1.17-58.158 58c-3.655 3.658-8.705 5.92-14.284 5.92-11.151 0-20.191-9.040-20.191-20.191 0-0.014 0-0.027 0-0.041v0.002-114.504h-114.846c-0.004 0-0.008 0-0.012 0-11.151 0-20.191-9.040-20.191-20.191 0-5.566 2.252-10.605 5.894-14.258v0l58.053-58.342c-40.308-67.244-64.145-148.362-64.145-235.047 0-255.533 207.135-462.687 462.661-462.717h506.332c25.467 0.015 46.106 20.663 46.106 46.133 0 0.018 0 0.037 0 0.055v-0.003 217.141c12.018 12.754 19.404 29.989 19.404 48.949 0 0.071 0 0.142 0 0.214v-0.011 123.878c0 0.008 0 0.017 0 0.026 0 11.151-9.040 20.191-20.191 20.191 0 0 0 0 0 0v0zM175.655 838.564l115.738-115.528v-78.192l-115.738 116.080zM147.036 732.357l115.791-116.106h-78.27l-115.528 116.106zM650.135 476.987h171.691v-38.229h-171.717zM974.69 119.559h-132.595c-11.159 0-20.204-9.046-20.204-20.204s9.046-20.204 20.204-20.204v0h132.595v-50.78c0 0 0 0 0 0 0-3.137-2.536-5.683-5.67-5.698h-466.184c-3.041 0.116-5.461 2.609-5.461 5.667 0 0.001 0 0.003 0 0.004v0 195.348c3.651-0.662 7.857-1.044 12.151-1.050h166.629c4.001-29.822 29.284-52.578 59.882-52.578 30.645 0 55.958 22.826 59.866 52.403l0.033 0.307h166.544c4.295 0.001 8.502 0.373 12.592 1.087l-0.436-0.063v-104.159zM716.117 229.835v35.551h39.831v-35.525c-0.4-10.691-9.164-19.205-19.915-19.205s-19.515 8.515-19.914 19.169l-0.001 0.036zM994.094 294.61c0-17.401-14.106-31.508-31.508-31.508v0 0h-166.151v18.511c-0.015 13.291-10.786 24.062-24.076 24.077h-72.469c-13.291-0.015-24.062-10.786-24.077-24.076v-18.643h-166.282c-17.401 0-31.508 14.106-31.508 31.508v0 103.87h516.070v-103.687zM757.419 113.651c-3.652 3.642-8.692 5.894-14.257 5.894-11.151 0-20.191-9.040-20.191-20.191s9.040-20.191 20.191-20.191c11.151 0 20.191 9.040 20.191 20.191 0 0.005 0 0.010 0 0.015v-0.001c-0.022 5.577-2.285 10.622-5.935 14.284l0.001-0.001z" />
<glyph unicode="&#xe928;" glyph-name="chat-add-group-icon" d="M444.985 339.911c-52.285 42.602-90.271 100.958-106.786 167.778l-0.449 2.149c-6.059 18.423-9.554 39.626-9.554 61.646 0 44.452 14.241 85.578 38.41 119.064l-0.412-0.6c36.208 49.633 94.169 81.517 159.576 81.517 98.633 0 180.332-72.505 194.706-167.125l0.136-1.091c1.072-8.94 1.684-19.293 1.684-29.789 0-41.452-9.543-80.676-26.551-115.593l0.689 1.567c-20.207-48.241-51.308-88.476-90.376-118.981l-0.647-0.486c24.178-9.614 47.502-19.115 70.77-28.444 30.151-11.719 60.473-23.154 90.567-34.873 7.509-2.958 14.905-6.827 22.073-10.354 33.621-15.718 57.23-47.842 60.615-85.785l0.029-0.401c2.447-18.743 4.028-40.786 4.375-63.13l0.006-0.472c0.683-41.7 0-83.57 0-125.156 0-2.276-0.341-4.551-0.512-7.339h-655.246c-0.429 1.663-0.734 3.609-0.849 5.605l-0.004 0.083c0 53.077 0 106.325 1.024 159.289 0.637 15.694 2.676 30.55 6.005 44.911l-0.316-1.619c5.473 32.062 26.088 58.353 54.082 71.6l0.588 0.25c30.322 14.165 61.668 26.112 92.672 38.741 28.046 11.378 56.434 22.244 84.423 33.451 3.516 0.865 6.605 2.095 9.467 3.683l-0.194-0.099zM331.776 365.796c-25.429-10.183-49.948-19.456-73.956-29.98-17.41-7.605-31.903-15.212-45.802-23.695l1.656 0.939c-42.606-26.452-71.741-71.131-76.525-122.868l-0.048-0.637c-3.527-24.519-4.722-49.209-6.997-74.638h-129.479c0 2.788-0.341 5.063-0.341 7.339 0 45.511-0.853 91.022 0.341 136.533 0.928 26.005 4.011 50.702 9.089 74.661l-0.499-2.811c4.867 26.436 21.627 48.161 44.41 59.742l0.475 0.219c29.582 14.905 60.473 27.307 91.022 39.822s62.919 24.86 94.436 37.148c2.617 1.024 5.063 2.446 8.59 4.039-28.512 21.833-52.046 48.578-69.686 79.152l-0.686 1.288c-28.577 45.25-45.684 100.231-46.079 159.182l-0.001 0.107c3.024 106.382 89.984 191.469 196.818 191.469 56.322 0 107.121-23.648 143.008-61.558l0.085-0.091c2.276-2.276 4.21-4.722 7.168-8.078-6.485-1.593-11.89-2.958-17.067-4.38-114.921-29.784-198.419-132.569-198.419-254.857 0-5.385 0.162-10.733 0.481-16.038l-0.035 0.73c5.126-68.563 27.534-131.005 62.835-184.141l-0.883 1.414zM803.783 470.756c17.067-6.997 34.133-14.165 51.2-20.821 36.466-14.165 72.875-28.046 109.34-42.041 6.485-2.446 12.629-5.689 19.115-8.761 36.644-16.31 62.232-51.407 64.612-92.724l0.013-0.289c1.934-19.115 3.356-38.343 3.527-57.628 0.512-44.316 0-88.633 0-133.518h-130.332c-1.593 21.049-2.446 41.7-4.722 62.18-2.331 57.931-33.627 108.073-79.719 136.573l-0.722 0.415c-15.934 9.309-35.224 18.985-55.116 27.527l-3.593 1.372c-18.603 8.249-37.831 14.905-57.628 22.756 2.276 3.527 4.039 6.315 5.689 9.102 35.873 52.931 58.792 117.289 62.871 186.71l0.048 1.023c0.177 3.603 0.278 7.825 0.278 12.071 0 126.586-89.742 232.211-209.075 256.723l-1.692 0.29c-1.252 0.341-2.617 0.512-5.063 1.024 2.446 2.958 4.039 5.234 5.689 7.168 36.058 38.334 87.112 62.208 143.743 62.208 96.561 0 176.911-69.411 193.877-161.060l0.187-1.215c1.945-11.511 3.057-24.773 3.057-38.294 0-36.033-7.896-70.223-22.051-100.932l0.619 1.498c-19.169-51.795-50.7-95.211-91.112-128.145l-0.536-0.424c-0.74-0.569-1.252-1.195-2.503-2.788z" />
<glyph unicode="&#xe929;" glyph-name="chat-completed-tick-icon" d="M217.003 189.355l-205.653 205.653c-6.802 6.974-10.997 16.517-10.997 27.040 0 21.396 17.345 38.741 38.741 38.741 10.523 0 20.066-4.196 27.048-11.005l178.339-178.339 463.787 463.872c6.974 6.802 16.517 10.997 27.040 10.997 21.396 0 38.741-17.345 38.741-38.741 0-10.523-4.196-20.066-11.005-27.048l-491.256-491.171c-7.011-7.009-16.695-11.345-27.392-11.345s-20.381 4.335-27.392 11.345v0zM444.16 189.355l-102.4 102.4c-6.802 6.974-10.997 16.517-10.997 27.040 0 21.396 17.345 38.741 38.741 38.741 10.523 0 20.066-4.196 27.048-11.005l75.085-75.085 463.787 463.872c6.974 6.802 16.517 10.997 27.040 10.997 21.396 0 38.741-17.345 38.741-38.741 0-10.523-4.196-20.066-11.005-27.048l-491.341-491.171c-7.006-6.984-16.674-11.302-27.349-11.302s-20.343 4.318-27.35 11.303l0.001-0.001z" />
<glyph unicode="&#xe92a;" glyph-name="chat-contact-icon" d="M851.968 960h-597.995c-0.842 0.021-1.833 0.032-2.827 0.032-67.335 0-122.107-53.786-123.698-120.738l-0.003-0.148v-52.203h-59.563c-0.142 0.003-0.309 0.005-0.476 0.005-13.466 0-24.42-10.756-24.74-24.146l-0.001-0.030c0.32-13.419 11.274-24.175 24.74-24.175 0.167 0 0.334 0.002 0.501 0.005h59.282v-158.549h-59.307c-0.167 0.004-0.364 0.006-0.561 0.006-13.467 0-24.421-10.757-24.74-24.147l-0.001-0.030c0.319-13.42 11.273-24.177 24.74-24.177 0.197 0 0.394 0.002 0.59 0.007l-0.029-0.001h59.307v-158.549h-59.307c-0.167 0.004-0.364 0.006-0.561 0.006-13.467 0-24.421-10.757-24.74-24.147l-0.001-0.030c0.307-13.429 11.266-24.198 24.741-24.198 0.197 0 0.394 0.002 0.59 0.007l-0.029-0.001h59.307v-158.549h-59.307c-0.142 0.003-0.309 0.005-0.476 0.005-13.466 0-24.42-10.756-24.74-24.146l-0.001-0.030c0.32-13.419 11.274-24.175 24.74-24.175 0.167 0 0.334 0.002 0.501 0.005h59.282v-52.203c1.653-67.111 56.449-120.883 123.805-120.883 0.958 0 1.913 0.011 2.865 0.032l-0.142-0.003h597.995c0.842-0.021 1.833-0.032 2.827-0.032 67.335 0 122.107 53.786 123.698 120.738l0.003 0.148v773.44c-1.525 67.084-56.267 120.883-123.575 120.883-0.948 0-1.894-0.011-2.837-0.032l0.14 0.002zM927.893 65.707c-1.088-40.296-34.013-72.548-74.471-72.548-0.512 0-1.022 0.005-1.531 0.015l0.076-0.001h-597.995c-0.433-0.009-0.943-0.014-1.455-0.014-40.458 0-73.383 32.251-74.468 72.447l-0.002 0.1v52.203h59.221c0.303-0.014 0.659-0.021 1.016-0.021 13.361 0 24.192 10.831 24.192 24.192s-10.831 24.192-24.192 24.192c-0.357 0-0.713-0.008-1.066-0.023l0.050 0.002h-59.221v158.549h59.221c0.303-0.014 0.659-0.021 1.016-0.021 13.361 0 24.192 10.831 24.192 24.192s-10.831 24.192-24.192 24.192c-0.357 0-0.713-0.008-1.066-0.023l0.050 0.002h-59.221v158.571h59.221c0.303-0.014 0.659-0.021 1.016-0.021 13.361 0 24.192 10.831 24.192 24.192s-10.831 24.192-24.192 24.192c-0.357 0-0.713-0.008-1.066-0.023l0.050 0.002h-59.221v158.549h59.221c0.303-0.014 0.659-0.021 1.016-0.021 13.361 0 24.192 10.831 24.192 24.192s-10.831 24.192-24.192 24.192c-0.357 0-0.713-0.008-1.066-0.023l0.050 0.002h-59.221v52.203c1.088 40.296 34.013 72.548 74.471 72.548 0.512 0 1.022-0.005 1.531-0.015l-0.076 0.001h597.995c0.433 0.009 0.943 0.014 1.455 0.014 40.458 0 73.383-32.251 74.468-72.447l0.002-0.1zM558.357 455.765c74.439 0 134.784 60.345 134.784 134.784s-60.345 134.784-134.784 134.784c-74.439 0-134.784-60.345-134.784-134.784v0c0-74.439 60.345-134.784 134.784-134.784v0zM558.357 670.037c43.747 0 79.211-35.464 79.211-79.211s-35.464-79.211-79.211-79.211c-43.747 0-79.211 35.464-79.211 79.211v0c0 43.747 35.464 79.211 79.211 79.211v0zM565.803 410.368c-114.102-0.754-206.308-93.426-206.308-207.633 0-2.004 0.028-4.002 0.085-5.993l-0.007 0.293c0.084-15.283 12.451-27.649 27.725-27.733h356.872c15.283 0.084 27.649 12.451 27.733 27.725v0.008c0.050 1.698 0.078 3.696 0.078 5.701 0 114.162-92.133 206.806-206.101 207.632h-0.079zM417.387 224.768c9.996 73.843 72.629 130.162 148.416 130.162s138.42-56.319 148.33-129.388l0.086-0.774z" />
<glyph unicode="&#xe92b;" d="M1024 448c0-282.77-229.23-512-512-512s-512 229.23-512 512c0 282.77 229.23 512 512 512s512-229.23 512-512z" />
<glyph unicode="&#xe92c;" d="M1016.686 448c0-278.73-225.955-504.686-504.686-504.686s-504.686 225.955-504.686 504.686c0 278.73 225.955 504.686 504.686 504.686s504.686-225.955 504.686-504.686z" />
<glyph unicode="&#xe92d;" d="M332.464 321.653l66.267-74.913c4.078-4.009 9.675-6.484 15.85-6.484s11.772 2.475 15.853 6.487l-0.003-0.003 63.386 74.913h253.572c12.354 0.899 22.156 10.7 23.050 22.974l0.005 0.081v299.666c-0.899 12.354-10.7 22.156-22.974 23.050l-0.081 0.005h-461.019c-12.354-0.899-22.156-10.7-23.050-22.974l-0.005-0.081v-299.666c0.899-12.354 10.7-22.156 22.974-23.050l0.081-0.005zM355.474 569.417c0.18 3.157 2.695 5.672 5.835 5.851l0.016 0.001h290.977c3.091-0.218 5.545-2.672 5.763-5.744l0.001-0.020v-11.527c-0.218-3.091-2.672-5.545-5.744-5.763l-0.020-0.001h-290.977c-3.115 0.173-5.607 2.619-5.85 5.698l-0.001 0.022zM355.474 500.268c0.201 3.138 2.709 5.63 5.835 5.807l0.016 0.001h290.977c3.091-0.218 5.545-2.672 5.763-5.744l0.001-0.020v-11.527c-0.218-3.091-2.672-5.545-5.744-5.763l-0.020-0.001h-290.977c-3.091 0.218-5.545 2.672-5.763 5.744l-0.001 0.020zM355.474 431.119c0.218 3.091 2.672 5.545 5.744 5.763l0.020 0.001h198.861c3.091-0.218 5.545-2.672 5.763-5.744l0.001-0.020v-11.527c-0.218-3.091-2.672-5.545-5.744-5.763l-0.020-0.001h-198.773c-3.138 0.177-5.643 2.661-5.85 5.774l-0.001 0.019z" />
<glyph unicode="&#xe92e;" glyph-name="chat-icon-1" d="M1001.557 532.941c-11.019 0-19.951-8.932-19.951-19.951v0-71.1c-0.049-40.85-33.151-73.953-73.996-74.001h-113.72c-0.004 0-0.009 0-0.013 0-5.506 0-10.491-2.23-14.101-5.837v0l-137.865-137.882v123.75c0 11.019-8.932 19.951-19.951 19.951v0h-285.747c-40.85 0.049-73.953 33.151-74.001 73.996v301.829c0.058 40.843 33.157 73.936 73.996 73.984h571.397c40.85-0.049 73.953-33.151 74.001-73.996v-71.088c0-11.019 8.932-19.951 19.951-19.951s19.951 8.932 19.951 19.951v71.1c-0.078 62.872-51.029 113.818-113.896 113.886h-571.399c-62.88-0.068-113.835-51.023-113.903-113.896v-256.314h-145.135c-42.603-0.049-77.127-34.572-77.175-77.171v-183.864c0.039-42.611 34.566-77.144 77.171-77.193h61.069l98.85-98.816c3.618-3.655 8.636-5.919 14.183-5.919 11.019 0 19.951 8.932 19.951 19.951 0 0.023 0 0.046 0 0.069v-0.004 84.719h154.061c42.603 0.049 77.127 34.572 77.175 77.171v101.654h99.601v-151.893c0-0.019 0-0.042 0-0.065 0-11.019 8.932-19.951 19.951-19.951 5.547 0 10.565 2.264 14.181 5.917l165.941 165.992h105.472c62.88 0.068 113.835 51.023 113.903 113.896v71.124c-0.010 11.015-8.936 19.941-19.95 19.951h-0.001zM462.507 226.338c-0.029-20.58-16.709-37.254-37.289-37.274h-174.082c-10.989-0.039-19.883-8.956-19.883-19.951 0 0 0 0 0 0v0-56.576l-70.69 70.673c-3.611 3.616-8.601 5.853-14.114 5.854h-69.274c-20.578 0.019-37.254 16.696-37.274 37.272v183.861c0.029 20.574 16.7 37.244 37.271 37.274h145.223v-5.581c0.068-62.88 51.023-113.835 113.896-113.903h126.215zM816.486 726.852h-389.12c-11.019 0-19.951-8.932-19.951-19.951s8.932-19.951 19.951-19.951h389.12c11.019 0 19.951 8.932 19.951 19.951s-8.932 19.951-19.951 19.951v0zM800 599.142c0.011 0.24 0.017 0.522 0.017 0.806 0 10.273-8.082 18.658-18.235 19.144l-0.044 0.002h-356.011c-10.242-0.976-18.189-9.536-18.189-19.951s7.947-18.975 18.108-19.945l0.081-0.006h356.011c10.196 0.487 18.278 8.872 18.278 19.145 0 0.283-0.006 0.565-0.018 0.846l0.001-0.040zM427.435 511.369c-11.019 0-19.951-8.932-19.951-19.951s8.932-19.951 19.951-19.951h224.461c11.019 0 19.951 8.932 19.951 19.951s-8.932 19.951-19.951 19.951v0zM1001.557 612.779c-11.019 0-19.951-8.932-19.951-19.951s8.932-19.951 19.951-19.951c11.019 0 19.951 8.932 19.951 19.951v0c-0.029 11.007-8.944 19.922-19.948 19.951h-0.003zM728.491 510.379c-11.019 0-19.951-8.932-19.951-19.951s8.932-19.951 19.951-19.951c11.019 0 19.951 8.932 19.951 19.951v0c-0.029 11.007-8.944 19.922-19.948 19.951h-0.003z" />
<glyph unicode="&#xe92f;" glyph-name="chat-reply-icon" d="M512.017-3.009c-249.076 0-450.991 201.916-450.991 450.991s201.916 450.991 450.991 450.991c249.076 0 450.991-201.916 450.991-450.991v0c-0.219-248.988-202.004-450.772-450.971-450.991h-0.020zM874.008 810.008c-92.629 92.682-220.624 150.010-362.008 150.010s-269.379-57.329-362.006-150.008l-0.002-0.002c-92.682-92.629-150.010-220.624-150.010-362.008s57.329-269.379 150.008-362.006l0.002-0.002c92.629-92.682 220.624-150.010 362.008-150.010s269.379 57.329 362.006 150.008l0.002 0.002c92.682 92.629 150.010 220.624 150.010 362.008s-57.329 269.379-150.008 362.006l-0.002 0.002zM263.396 540.204c12.125 12.148 28.888 19.663 47.406 19.663s35.281-7.515 47.405-19.662l0.001-0.001c5.52-5.547 13.161-8.979 21.602-8.979 16.832 0 30.476 13.645 30.476 30.476 0 8.39-3.39 15.988-8.875 21.499l0.001-0.001c-23.16 23.169-55.16 37.5-90.506 37.5s-67.347-14.331-90.506-37.499v0c-5.502-5.502-8.905-13.102-8.905-21.497 0-16.791 13.611-30.402 30.402-30.402 8.395 0 15.996 3.403 21.497 8.905v0zM665.791 540.204c12.125 12.148 28.888 19.663 47.406 19.663s35.281-7.515 47.405-19.662l0.001-0.001c5.52-5.547 13.161-8.979 21.602-8.979 16.832 0 30.476 13.645 30.476 30.476 0 8.39-3.39 15.988-8.875 21.499l0.001-0.001c-23.16 23.169-55.16 37.5-90.506 37.5s-67.347-14.331-90.506-37.499v0c-5.502-5.502-8.905-13.102-8.905-21.497 0-16.791 13.611-30.402 30.402-30.402 8.395 0 15.996 3.403 21.497 8.905v0zM512.017 155.386c-121.58 0.163-221.973 90.662-237.668 207.968l-0.135 1.23h475.605c-15.829-118.536-116.222-209.034-237.785-209.198h-0.017zM782.101 425.575h-540.307c-16.784 0-30.391-13.606-30.391-30.391v0c1.833-164.623 135.713-297.37 300.597-297.37s298.763 132.746 300.595 297.196l0.002 0.174c0 0 0 0 0 0 0 16.784-13.606 30.391-30.391 30.391-0.037 0-0.074 0-0.111 0h0.006z" />
<glyph unicode="&#xe930;" glyph-name="dashboard-client-icon" d="M677.316 383.142c-23.958 24.044-53.21 42.797-85.862 54.362l-1.604 0.495c35.087 24.311 57.776 64.365 57.776 109.718 0 73.491-59.576 133.067-133.067 133.067s-133.067-59.576-133.067-133.067c0-45.353 22.689-85.407 57.336-109.429l0.44-0.289c-90.889-32.246-154.823-117.458-154.89-217.612v-0.008h35.906c0 107.258 86.95 194.208 194.208 194.208s194.208-86.95 194.208-194.208v0h35.906c0.001 0.215 0.001 0.47 0.001 0.725 0 63.312-25.722 120.616-67.286 162.032l-0.007 0.007zM514.553 450.553c-53.616 0-97.081 43.464-97.081 97.081s43.464 97.081 97.081 97.081c53.616 0 97.081-43.464 97.081-97.081v0c-0.076-53.586-43.495-97.005-97.073-97.081h-0.007z" />
<glyph unicode="&#xe931;" glyph-name="dashboard-employee-icons" d="M764.343 560.068c-43.731-0.053-79.167-35.489-79.22-79.215v-83.109c-9.323 4.202-20.21 6.649-31.669 6.649-0.008 0-0.015 0-0.023 0h0.001c-0.055 0-0.12 0-0.184 0-21.813 0-41.555-8.871-55.813-23.203l-70.752-70.779v-130.593h158.441v25.547l95.059 134.45v220.253zM748.504 349.856l-97.839-138.306h-92.293v85.777l61.4 61.4c8.612 8.609 20.508 13.933 33.648 13.933 7.438 0 14.477-1.706 20.748-4.748l-0.283 0.124-70.829-70.829 22.395-22.408 91.309 91.309v114.741c0.023 20.566 13.083 38.076 31.36 44.712l0.331 0.105zM422.141 381.147c-14.262 14.335-34.003 23.206-55.816 23.206-0.065 0-0.13 0-0.194 0h0.010c-0.006 0-0.014 0-0.021 0-11.459 0-22.347-2.448-32.168-6.849l0.499 0.2v83.104c-0.030 43.753-35.483 79.215-79.229 79.26h-15.843v-220.28l95.059-134.45v-25.547h158.441v130.593zM461.186 211.496h-92.293l-97.839 138.306v175.809c18.607-6.741 31.667-24.251 31.691-44.814v-114.744l91.309-91.309 22.395 22.408-70.829 70.882c5.967 2.92 12.984 4.628 20.401 4.628 0.037 0 0.075 0 0.112 0h-0.006c0.034 0 0.074 0 0.114 0 13.085 0 24.926-5.323 33.477-13.922l61.455-61.455zM588.999 641.403c0 43.752-35.468 79.22-79.22 79.22s-79.22-35.468-79.22-79.22c0-43.752 35.468-79.22 79.22-79.22v0c43.731 0.053 79.167 35.489 79.22 79.215v0.005zM509.779 593.873c-26.25 0-47.53 21.28-47.53 47.53s21.28 47.53 47.53 47.53c26.25 0 47.53-21.28 47.53-47.53v0c-0.030-26.238-21.292-47.499-47.527-47.53h-0.003zM620.69 451.271c0 61.255-49.657 110.911-110.911 110.911s-110.911-49.657-110.911-110.911v0-47.53h221.822zM588.999 435.433h-158.441v15.839c0 43.752 35.468 79.22 79.22 79.22s79.22-35.468 79.22-79.22v0z" />
<glyph unicode="&#xe932;" glyph-name="dashboard-invoice-icons" d="M720.657 720.623h-317.307c-18.201 0-32.958-14.743-32.981-32.939v-73.703c-60.755-17.788-104.375-73.010-104.375-138.42s43.62-120.631 103.357-138.163l1.018-0.256v-126.816c0.023-18.198 14.78-32.941 32.981-32.941h259.325c0.003 0 0.007 0 0.011 0 3.2 0 6.097 1.296 8.195 3.391v0l79.353 79.353c2.095 2.098 3.391 4.995 3.391 8.195 0 0.004 0 0.008 0 0.011v-0.001 419.348c-0.015 18.196-14.769 32.941-32.967 32.941v0zM403.35 697.417h317.307c5.373-0.008 9.727-4.361 9.735-9.734v-35.003h-336.816v35.002c0.008 5.378 4.369 9.735 9.748 9.735 0.009 0 0.019 0 0.028 0h-0.001zM289.18 475.555c0 66.69 54.063 120.752 120.752 120.752s120.752-54.063 120.752-120.752c0-66.69-54.063-120.752-120.752-120.752v0c-66.659 0.076-120.677 54.093-120.752 120.745v0.007zM393.575 210.326v122.215c4.912-0.595 10.6-0.935 16.367-0.935 43.223 0 81.989 19.081 108.336 49.278l0.146 0.171h71.108c6.408 0 11.603 5.195 11.603 11.603s-5.195 11.603-11.603 11.603v0h-54.525c9.875 16.928 16.461 36.927 18.353 58.276l0.039 0.545h36.133c6.408 0 11.603 5.195 11.603 11.603s-5.195 11.603-11.603 11.603v0h-36.066c-1.651 21.818-7.959 41.845-17.925 59.536l0.371-0.716h53.62c6.408 0 11.603 5.195 11.603 11.603s-5.195 11.603-11.603 11.603h-69.619c-26.538 31.399-65.947 51.203-109.981 51.203-5.763 0-11.447-0.339-17.033-0.999l0.677 0.065v10.905h336.816v-349.543h-46.439c-18.187-0.015-32.926-14.754-32.941-32.939v-46.36h-247.662c-0.008 0-0.017 0-0.027 0-5.36 0-9.71 4.326-9.748 9.678v0.004zM674.257 216.975v30.028c0.008 5.373 4.361 9.727 9.734 9.735h30.003zM635.066 545.094h38.566c6.408 0 11.603 5.195 11.603 11.603s-5.195 11.603-11.603 11.603h-38.566c-6.408 0-11.603-5.195-11.603-11.603s5.195-11.603 11.603-11.603v0zM635.066 463.067h38.566c6.408 0 11.603 5.195 11.603 11.603s-5.195 11.603-11.603 11.603h-38.566c-6.408 0-11.603-5.195-11.603-11.603s5.195-11.603 11.603-11.603v0zM635.066 381.014h38.566c6.408 0 11.603 5.195 11.603 11.603s-5.195 11.603-11.603 11.603h-38.566c-6.408 0-11.603-5.195-11.603-11.603s5.195-11.603 11.603-11.603v0zM673.606 299.028c6.408 0 11.603 5.195 11.603 11.603s-5.195 11.603-11.603 11.603h-108.517c-6.408 0-11.603-5.195-11.603-11.603s5.195-11.603 11.603-11.603v0zM499.991 534.069l-14.15 14.15c-3.651 3.653-8.696 5.913-14.27 5.913s-10.618-2.26-14.269-5.913l-74.233-74.233-20.52 20.52c-3.651 3.653-8.696 5.913-14.27 5.913s-10.618-2.26-14.269-5.913l-14.15-14.15c-3.647-3.654-5.902-8.698-5.902-14.27s2.255-10.615 5.902-14.27v0l48.939-48.939c3.631-3.655 8.661-5.918 14.219-5.918 0.018 0 0.035 0 0.053 0h-0.003c0.019 0 0.041 0 0.064 0 5.552 0 10.576 2.257 14.205 5.904l102.654 102.654c3.651 3.655 5.909 8.702 5.909 14.276s-2.258 10.621-5.909 14.276v0zM383.069 421.416l-44.67 44.67 9.881 9.881 26.597-26.597c2.099-2.102 5-3.402 8.205-3.402s6.106 1.3 8.205 3.402v0l80.298 80.298 9.881-9.881z" />
<glyph unicode="&#xe933;" glyph-name="dashboard-project-icon" d="M710.457 604.007h-38.367v53.7c0 12.709-10.299 23.012-23.006 23.020h-199.481c-2.119 0-4.037-0.859-5.426-2.247l-122.76-122.76c-1.389-1.389-2.247-3.307-2.247-5.426v0-276.201c0-12.714 10.306-23.020 23.020-23.020v0h179.386l13.179-26.451c1.286-2.541 3.877-4.253 6.869-4.253s5.583 1.712 6.849 4.209l0.020 0.044 13.299 26.451h48.966v-23.020c0-4.238 3.435-7.673 7.673-7.673v0h92.067c4.221 0.023 7.633 3.449 7.633 7.673 0 0.005 0 0.009 0 0.014v-0.001 368.268c0 4.238-3.435 7.673-7.673 7.673v0zM441.929 654.529v-88.889c0-4.238-3.435-7.673-7.673-7.673v0h-88.889zM541.669 245.208l-9.043 18.073c2.533 1.735 5.664 2.771 9.036 2.771s6.504-1.036 9.092-2.807l-0.055 0.036zM557.628 277.125c-4.512 2.932-10.032 4.675-15.958 4.675s-11.446-1.743-16.074-4.745l0.115 0.070-5.319 10.825 21.278 21.358 21.358-21.371zM518.649 307.965v173.282h15.347v-157.949zM564.689 307.965l-15.347 15.347v157.935h15.347zM564.689 496.593h-46.040v15.347h46.040zM564.689 527.287h-46.040v7.673c0 12.714 10.306 23.020 23.020 23.020s23.020-10.306 23.020-23.020v0zM610.73 596.334v-329.914h-41.226l9.841 19.589c0.487 0.98 0.772 2.133 0.772 3.354 0 0.027 0 0.054 0 0.081v-0.004 245.507c0.004 0.213 0.007 0.463 0.007 0.714 0 21.189-17.177 38.367-38.367 38.367s-38.367-17.177-38.367-38.367c0-0.251 0.002-0.502 0.007-0.752l-0.001 0.038v-245.507c0-1.251 0.3-2.432 0.831-3.475l-0.020 0.044 9.801-19.589h-171.819c-4.238 0-7.673 3.435-7.673 7.673v0 268.527h99.74c12.714 0 23.020 10.306 23.020 23.020v0 99.74h191.807c4.238 0 7.673-3.435 7.673-7.673v0-53.7h-38.367c-4.238 0-7.673-3.435-7.673-7.673v0zM679.776 496.593h23.020v-30.693h-23.033c-4.238 0-7.673-3.435-7.673-7.673s3.435-7.673 7.673-7.673v0h23.020v-30.693h-23.020c-4.238 0-7.673-3.435-7.673-7.673s3.435-7.673 7.673-7.673v0h23.020v-30.693h-23.020c-4.238 0-7.673-3.435-7.673-7.673s3.435-7.673 7.673-7.673v0h23.020v-30.693h-23.020c-4.238 0-7.673-3.435-7.673-7.673s3.435-7.673 7.673-7.673v0h23.020v-30.667h-23.020c-4.238 0-7.673-3.435-7.673-7.673s3.435-7.673 7.673-7.673h23.020v-30.693h-76.72v352.934h76.72v-30.693h-23.020c-4.238 0-7.673-3.435-7.673-7.673s3.435-7.673 7.673-7.673v0h23.020v-30.693h-23.020c-4.238 0-7.673-3.435-7.673-7.673s3.435-7.673 7.673-7.673v0z" />
<glyph unicode="&#xe934;" glyph-name="delete-icon" d="M603.567 590.444h-196.824c-16.42-0.092-29.696-13.424-29.696-29.857 0-0.038 0-0.076 0-0.114v0.006l13.42-295.074c0.031-16.388 13.308-29.665 29.693-29.696h169.825c0.016 0 0.035 0 0.055 0 16.295 0 29.519 13.149 29.641 29.415v0.012l13.42 295.613c-0.030 16.332-13.215 29.574-29.523 29.696h-0.012zM589.986 265.027l-170.146 0.647-13.096 295.074c0 0.208 0.169 0.377 0.377 0.377v0h196.985zM505.209 281.681c8.691 0 15.737 7.046 15.737 15.737v0 212.723c0 8.691-7.046 15.737-15.737 15.737s-15.737-7.046-15.737-15.737v0-212.723c0-8.691 7.046-15.737 15.737-15.737v0zM562.338 281.681v0c8.623 0.030 15.616 6.966 15.737 15.564v0.011l2.425 212.723c0.001 0.068 0.002 0.149 0.002 0.23 0 4.258-1.708 8.116-4.477 10.928l0.002-0.002c-2.856 2.899-6.824 4.694-11.212 4.694-8.599 0-15.587-6.896-15.735-15.459v-0.014l-2.425-212.723c-0.001-0.048-0.001-0.105-0.001-0.162 0-8.684 7.009-15.73 15.678-15.791h0.006zM447.973 281.681v0c8.63 0.119 15.58 7.143 15.58 15.79 0 0.133-0.002 0.266-0.005 0.398v-0.020l-2.425 212.723c-0.15 8.636-7.185 15.579-15.843 15.579-0.114 0-0.229-0.001-0.343-0.004h0.017c-8.624-0.088-15.582-7.1-15.582-15.736 0-0.152 0.002-0.303 0.006-0.454v0.022l2.425-212.723c0.119-8.63 7.143-15.58 15.79-15.58 0.133 0 0.266 0.002 0.398 0.005h-0.020zM397.15 601.977l219.729 12.665c3.917 0.213 7.379 1.997 9.796 4.728l0.013 0.015c2.227 2.456 3.591 5.732 3.591 9.326 0 0.341-0.012 0.679-0.036 1.013l0.003-0.045c-0.439 7.492-6.614 13.403-14.173 13.42h-0.002l-219.837-12.665c-7.489-0.455-13.39-6.64-13.39-14.204 0-0.293 0.009-0.584 0.026-0.873l-0.002 0.040c0.412-7.497 6.591-13.42 14.154-13.42 0.045 0 0.090 0 0.135 0.001h-0.007zM397.15 606.127v0 0zM471.579 639.488h0.862c7.729 0.455 13.824 6.833 13.824 14.636 0 0.312-0.010 0.621-0.029 0.928l0.002-0.042v3.988l39.235 1.886v-3.557c0.468-7.707 6.825-13.781 14.604-13.797h0.864c7.729 0.455 13.824 6.833 13.824 14.636 0 0.312-0.010 0.621-0.029 0.928l0.002-0.042v3.557c-0.997 15.649-13.934 27.965-29.747 27.965-0.589 0-1.174-0.017-1.754-0.051l0.080 0.004-38.804-2.264c-15.64-0.94-27.967-13.853-27.967-29.646 0-0.605 0.018-1.207 0.054-1.803l-0.004 0.082v-3.557c0.439-7.743 6.824-13.855 14.637-13.855 0.121 0 0.243 0.001 0.363 0.004h-0.018zM471.579 643.638v0 0z" />
<glyph unicode="&#xe935;" glyph-name="edit-icon" d="M745.526 641.105c-13.912 13.884-33.116 22.47-54.326 22.47s-40.414-8.586-54.327-22.471l-308.654-308.924c-0.429-0.589-0.793-1.266-1.059-1.99l-0.019-0.058s0-0.431 0-0.647v0l-30.72-126.976c-0.028-0.259-0.044-0.559-0.044-0.862s0.016-0.604 0.047-0.899l-0.003 0.037s0 0 0-0.323c0.016-1.030 0.212-2.010 0.559-2.915l-0.020 0.058v-0.593c0.521-0.903 1.168-1.67 1.927-2.307l0.013-0.011c0.801-0.86 1.769-1.553 2.855-2.027l0.055-0.021c0.955-0.408 2.067-0.645 3.233-0.647h0.001c0.299-0.037 0.646-0.058 0.997-0.058s0.698 0.021 1.038 0.062l-0.041-0.004 126.76 30.181h0.647l0.862 0.323c0.658 0.294 1.225 0.637 1.744 1.038l-0.019-0.014 0.593 0.485 307.901 308.44c13.884 13.912 22.47 33.116 22.47 54.326s-8.586 40.414-22.471 54.327l0.001-0.001zM733.453 629.032c10.715-10.807 17.337-25.688 17.337-42.115 0-13.525-4.488-26.001-12.056-36.021l0.109 0.151-83.375 83.537c9.851 7.416 22.294 11.878 35.778 11.878 16.473 0 31.392-6.658 42.21-17.431l-0.002 0.002zM691.2 502.326l-84.507 84.453 12.072 12.126 84.507-84.507zM338.782 234.361c-1.542 1.55-3.677 2.509-6.036 2.509s-4.494-0.959-6.036-2.509v0l-6.467-6.467 21.558 91.621 37.726 4.204-4.851-43.709c-0.008-0.137-0.012-0.297-0.012-0.458s0.004-0.321 0.013-0.48l-0.001 0.022c-0.008-0.137-0.012-0.297-0.012-0.458s0.004-0.321 0.013-0.48l-0.001 0.022c0-0.269 0-0.539 0-0.808 0.119-0.541 0.267-1.010 0.452-1.459l-0.021 0.058c0.236-0.599 0.507-1.114 0.827-1.593l-0.019 0.030c0.271-0.403 0.555-0.755 0.865-1.081l-0.003 0.003c0.402-0.415 0.843-0.787 1.318-1.113l0.029-0.019c0.34-0.243 0.729-0.476 1.135-0.678l0.050-0.023c0.508-0.221 1.103-0.408 1.722-0.53l0.056-0.009c0.238-0.104 0.542-0.214 0.853-0.307l0.063-0.016h1.886l43.709 4.851-4.204-37.726-91.621-21.558 6.467 6.467c1.608 1.551 2.607 3.725 2.607 6.132 0 2.131-0.783 4.080-2.077 5.574l0.009-0.011zM445.871 280.926l191.003 191.219c1.545 1.545 2.5 3.679 2.5 6.036 0 4.715-3.822 8.536-8.536 8.536-2.357 0-4.491-0.955-6.036-2.5l-191.003-191.057-40.744-4.527 4.527 40.798 191.057 190.949c1.336 1.497 2.152 3.483 2.152 5.659 0 4.703-3.812 8.515-8.515 8.515-2.149 0-4.113-0.796-5.611-2.11l0.010 0.008-191.165-191.003-26.947-3.018 236.113 236.328 84.399-84.507-236.221-236.275zM715.345 526.255l-84.507 84.669 12.072 12.072 84.669-84.453z" />
<glyph unicode="&#xe936;" glyph-name="education-info-icon" d="M511.452 308.665c4.521 0.001 8.758 1.212 12.407 3.326l-0.119-0.064 206.181 117.284v-171.46c-49.526-19.784-106.849-32.548-166.762-35.436l-1.222-0.047c-12.905-1-22.998-11.717-22.998-24.792 0-13.636 10.978-24.708 24.579-24.86h1.657c59.931 3.226 116.137 14.57 169.039 32.972l-4.294-1.3v-84.349c-11.074-2.64-19.183-12.445-19.194-24.146v-87.279c0-0.038 0-0.082 0-0.126 0-13.665 11.078-24.743 24.743-24.743 7.778 0 14.717 3.589 19.253 9.2l0.037 0.047c4.577-5.633 11.504-9.203 19.266-9.203 13.678 0 24.767 11.088 24.767 24.767 0 0.021 0 0.041 0 0.062v-0.003 87.302c-0.020 11.699-8.125 21.499-19.025 24.113l-0.169 0.034v355.971c0 0.004 0 0.009 0 0.014 0 9.198-5 17.229-12.43 21.522l-0.12 0.064-236.401 134.573c-3.534 2.049-7.776 3.258-12.3 3.258-13.722 0-24.846-11.124-24.846-24.846 0-9.198 4.998-17.228 12.426-21.523l0.12-0.064 201.919-114.926-196.537-111.926-436.343 248.451 436.367 248.403 242.736-138.121c3.731-2.36 8.272-3.76 13.14-3.76 13.718 0 24.838 11.12 24.838 24.838 0 9.558-5.399 17.855-13.313 22.008l-0.136 0.065-255.024 145.265c-3.531 2.045-7.769 3.253-12.288 3.253s-8.757-1.207-12.408-3.316l0.12 0.064-486.567-277.123c-7.552-4.356-12.553-12.388-12.553-21.587s5.001-17.231 12.434-21.523l0.12-0.064 486.614-277.004c3.531-2.045 7.768-3.255 12.286-3.263h0.002zM1010.355 632.129l-141.431 80.515c-3.535 2.045-7.777 3.252-12.3 3.252-13.745 0-24.887-11.142-24.887-24.887 0-9.221 5.015-17.271 12.467-21.571l0.12-0.064 103.495-58.94-74.323-42.198c-7.293-4.421-12.092-12.316-12.092-21.332 0-13.731 11.131-24.862 24.862-24.862 4.335 0 8.411 1.11 11.959 3.060l-0.129-0.065 112.235 63.869c7.551 4.363 12.55 12.397 12.55 21.599s-4.999 17.237-12.43 21.535l-0.12 0.064zM206.276 385.655c-13.718 0-24.838-11.12-24.838-24.838 0-0.008 0-0.017 0-0.025v0.001-48.961c0-56.082 64.155-101.9 176.009-125.738 1.553-0.345 3.337-0.543 5.168-0.543 13.722 0 24.845 11.124 24.845 24.845 0 11.892-8.354 21.832-19.514 24.272l-0.164 0.030c-89.707 19.051-136.668 53.272-136.668 77.11v48.985c0 0.007 0 0.015 0 0.024 0 13.718-11.12 24.838-24.838 24.838 0 0 0 0 0 0v0zM435.009 216.552c-4.495-4.495-7.275-10.704-7.275-17.563 0-13.718 11.12-24.838 24.838-24.838s24.838 11.12 24.838 24.838c0 6.859-2.78 13.069-7.275 17.563v0c-4.593 4.273-10.772 6.895-17.563 6.895s-12.97-2.622-17.579-6.91l0.016 0.015z" />
<glyph unicode="&#xe937;" glyph-name="email-icon" d="M993.236 770.783h-973.045c-11.151 0-20.191-9.040-20.191-20.191v0-531.901c0.076-56.991 46.255-103.17 103.239-103.246h806.941c56.991 0.076 103.17 46.255 103.246 103.239v531.908c0 11.151-9.040 20.191-20.191 20.191v0zM973.045 218.713c-0.038-34.716-28.171-62.849-62.883-62.887h-806.916c-34.716 0.038-62.849 28.171-62.887 62.883v487.851l453.565-371.311c3.451-2.837 7.913-4.558 12.778-4.558s9.327 1.72 12.813 4.586l-0.035-0.028 350.92 286.653c5.158 3.706 8.478 9.688 8.478 16.446 0 11.151-9.040 20.191-20.191 20.191-5.352 0-10.218-2.082-13.831-5.481l0.010 0.010-338.143-276.124-431.75 353.458h898.093zM930.148 696.743c-3.731 4.544-9.349 7.42-15.639 7.42-4.859 0-9.317-1.717-12.801-4.576l0.035 0.028-6.055-4.942c-5.158-3.706-8.478-9.688-8.478-16.446 0-11.151 9.040-20.191 20.191-20.191 5.352 0 10.218 2.082 13.831 5.481l-0.010-0.010 6.055 4.942c4.512 3.731 7.366 9.329 7.366 15.594 0 4.829-1.695 9.262-4.523 12.736l0.029-0.037z" />
<glyph unicode="&#xe938;" glyph-name="estimate-icon" d="M136.673 639.154h540.839c9.233 0 16.718 7.485 16.718 16.718v0 207.161c0 9.233-7.485 16.718-16.718 16.718h-540.839c-9.233 0-16.718-7.485-16.718-16.718v0-207.141c0-0.006 0-0.014 0-0.021 0-9.233 7.485-16.718 16.718-16.718 0 0 0 0 0 0v0zM145.032 854.653h524.121v-190.422h-524.1zM754.103 417.071v486.776c0 0.019 0 0.041 0 0.063 0 30.912-25.005 55.983-55.892 56.090h-579.636c-30.888-0.119-55.881-25.185-55.881-56.090 0-0.022 0-0.044 0-0.066v0.003-915.958c0.012-30.895 25.001-55.95 55.87-56.069h579.637c0.556 0.003 1.1 0.041 1.633 0.112l-0.066-0.007c5.517-0.355 11.076-0.564 16.718-0.564 1.669-0.041 3.635-0.064 5.606-0.064 134.748 0 243.984 109.235 243.984 243.984 0 123.461-91.701 225.504-210.708 241.733l-1.265 0.141zM118.575-43.102c-17.033 0.095-30.804 13.924-30.804 30.97 0 0.008 0 0.015 0 0.023v-0.001 915.958c0 0.031 0 0.068 0 0.105 0 17.046 13.771 30.876 30.795 30.97h579.635c17.033-0.095 30.804-13.924 30.804-30.97 0-0.030 0-0.059 0-0.089v0.005-484.331q-6.269 0.313-12.539 0.313-10.136 0-20.062-0.794v155.439c0 9.33-7.557 16.895-16.884 16.906h-550.913c-9.328-0.012-16.886-7.577-16.886-16.906v0-564.955c0-9.33 7.557-16.895 16.884-16.906h352.884c1.267-0.481 2.733-0.759 4.263-0.759s2.996 0.278 4.348 0.787l-0.085-0.028h61.315c15.705-13.645 33.499-25.554 52.686-35.079l1.461-0.656zM314.18 17.795v115.148h156.609c2.624-14.262 6.040-26.688 10.39-38.667l-0.526 1.657c-4.386-2.017-7.377-6.373-7.377-11.427 0-0.001 0-0.003 0-0.004v0-66.873zM136.819 17.795v115.148h152.283v-115.231zM481.384 566.303v-118.471h-167.184v118.471zM671.305 566.303v-118.471h-164.822v118.471zM466.965 175.511c0-5.893 0.23-11.745 0.648-17.533h-153.433v122.044h167.184v-22.612c-9.12-24.278-14.399-52.338-14.399-81.631 0-0.072 0-0.145 0-0.217v0.011zM136.777 422.693h152.283v-117.635h-152.242zM136.777 279.98h152.283v-121.981h-152.242zM314.138 305.058v117.676h167.184v-117.635zM289.061 447.77h-152.242v118.533h152.283zM498.312 57.208c8.571-14.938 17.807-27.849 28.172-39.751l-0.252 0.296h-27.92zM506.483 307.399v115.336h164.843v-6.896c-69.253-12.693-127.428-52.402-164.27-107.57l-0.573-0.911zM716.466-43.625c-118.863 2.876-214.12 99.914-214.12 219.201 0 121.095 98.167 219.261 219.261 219.261s219.261-98.167 219.261-219.261c0-0.001 0-0.002 0-0.002v0c-1.632-121.414-100.437-219.211-222.085-219.211-0.815 0-1.629 0.004-2.442 0.013l0.124-0.001zM840.516 207.36c-0.397 6.708-8.359 11.954-24.304 15.945 0.517 1.077 0.824 2.34 0.836 3.674v27.401c-1.463 22.841-95.044 23.51-105.785 23.51s-104.344-0.669-105.806-23.51v0-27.418c0-7.44 9.634-13.27 23.928-17.617-0.193-0.618-0.32-1.332-0.355-2.071l-0.001-0.019v-27.272c-15.402-3.971-22.988-9.132-23.468-15.715h-0.104v-27.439c0-5.183 4.681-9.571 12.33-13.249-0.276-0.719-0.463-1.551-0.521-2.419l-0.001-0.026v-27.418c0-13.040 29.383-21.128 61.983-24.91 0.205-0.067 0.446-0.119 0.695-0.145l0.016-0.001h0.209c6.269-0.711 12.664-1.254 18.996-1.651 0.059-0.004 0.129-0.006 0.199-0.006s0.139 0.002 0.208 0.007h0.2c8.025-0.481 15.924-0.731 23.301-0.731s15.276 0.251 23.301 0.731h0.209c0.146 0 0.251 0 0.397 0 6.269 0.397 12.706 0.94 18.996 1.651h0.209c0.249 0.070 0.464 0.156 0.668 0.26l-0.020-0.009c32.601 3.783 61.942 11.87 61.983 24.91v27.335c-0.272 4.807-4.368 8.819-12.539 12.163 0.479 1.037 0.763 2.25 0.773 3.528v25.604c14.064 4.326 23.489 10.115 23.51 17.492v27.418zM808.793 135.575l-1.337-1.17c-2.858-2.233-6.167-4.067-9.744-5.337l-0.245-0.076v18.683c4.504 1.503 8.394 3.328 12.023 5.537l-0.258-0.146v-16.217c-0.028-0.48-0.188-0.917-0.444-1.283l0.005 0.008zM721.147 117.373h-5.914v19.477h3.866q5.914 0.104 11.828 0.376v-19.56l-2.529-0.125c-2.445-0.042-4.827-0.125-7.252-0.188zM704.031 117.373l-5.35 0.125h-0.648l-6.269 0.272v19.519q5.893-0.272 11.828-0.376h3.866v-19.581h-3.427zM633.25 126.318l-0.376 0.104v18.85c3.657-0.982 7.586-1.881 11.766-2.717v-19.122q-5.392 1.149-9.947 2.382zM715.839 93.863h3.239v-19.581q-8.129 0-15.673 0.46v19.56q5.893-0.272 11.828-0.376zM730.76 93.863q5.914 0.104 11.828 0.376v-19.56q-7.544-0.376-15.673-0.46v19.581h3.239zM762.107 95.639v-19.456q-5.642-0.585-11.766-1.024v19.456c4.075 0.272 8.004 0.585 11.849 0.961zM769.944 96.496q6.060 0.731 11.766 1.651v-19.247q-5.538-0.982-11.766-1.797zM789.546 99.547c4.18 0.815 8.088 1.714 11.766 2.717v-18.934c-3.49-1.003-7.419-1.985-11.766-2.905zM656.321 99.547v-19.122c-4.326 0.92-8.359 1.902-11.766 2.905v18.934c3.741-1.066 7.67-2.006 11.849-2.8zM664.158 98.147q5.684-0.92 11.766-1.651v-19.372q-6.269 0.815-11.766 1.797zM683.76 95.66c3.866-0.376 7.774-0.69 11.766-0.961v-19.519q-6.102 0.439-11.766 1.024zM674.105 119.066h-2.027v19.602c3.866-0.376 7.774-0.69 11.766-0.961v-19.519c-3.302 0.251-6.562 0.502-9.738 0.878zM664.242 139.588v-19.372q-6.269 0.815-11.766 1.797v19.163q5.684-0.92 11.766-1.651zM741.292 118.376l-2.612-0.188v19.54c3.971 0.272 7.899 0.585 11.766 0.961v-19.456c-2.424-0.251-4.89-0.502-7.44-0.711zM758.282 120.132v19.393q6.060 0.731 11.766 1.651v-19.247q-5.559-0.961-11.766-1.797zM777.864 142.576c4.18 0.815 8.088 1.714 11.766 2.717v-18.934c-3.49-1.003-7.419-1.985-11.766-2.905zM724.281 160.465c-2.947 0-5.831 0.188-8.652 0.334h-0.46v19.581q5.893-0.272 11.828-0.376h3.866v-19.56h-5.684zM632.895 216.471v18.934c3.657-0.982 7.586-1.881 11.766-2.717v-19.122l-1.442 0.313c-2.090 0.46-4.18 0.94-6.060 1.442-1.505 0.376-2.926 0.773-4.263 1.149zM704.115 226.92h3.239v-19.56c-5.266 0-10.449 0.188-15.673 0.439v19.602q5.893-0.272 11.828-0.376zM719.036 226.92q5.914 0.104 11.828 0.376v-19.54l-1.985-0.104h-0.125c-2.633-0.125-5.308-0.209-8.025-0.272h-5.496v19.581h3.239zM808.333 224.956h-0.167l-1.421-1.108c-2.683-1.914-5.764-3.539-9.055-4.723l-0.266-0.084v18.766c4.512 1.501 8.409 3.326 12.044 5.537l-0.258-0.146v-16.217c-0.066-0.757-0.397-1.425-0.898-1.922v0zM758.282 210.181v19.456q6.060 0.731 11.766 1.651v-19.205c-3.678-0.648-7.649-1.254-11.766-1.797zM777.885 213.483v19.205c4.18 0.815 8.088 1.714 11.766 2.717v-18.808c-3.532-1.108-7.502-2.069-11.786-2.988zM750.446 228.801v-19.435q-5.684-0.606-11.766-1.045v19.519c3.971 0.272 7.899 0.585 11.766 0.961zM672.078 209.366v19.435c3.866-0.376 7.774-0.69 11.766-0.961v-19.498c-4.012 0.293-7.941 0.585-11.766 1.024zM664.242 229.658v-19.352l-2.361 0.272-1.484 0.209q-3.406 0.481-6.646 1.045l-1.275 0.23v19.226q5.684-0.899 11.766-1.651zM706.372 161.364l-1.588 0.125q-3.762 0.293-7.356 0.648l-1.546 0.146h-0.313v19.477c3.866-0.376 7.774-0.69 11.766-0.961v-19.54zM680.479 164.289l-4.493 0.752v19.226q5.684-0.92 11.766-1.651v-19.372c-2.403 0.313-4.744 0.648-7.001 1.003zM668.15 185.668v-19.101q-6.499 1.4-11.766 2.947v18.808c3.678-0.92 7.586-1.839 11.766-2.654zM648.547 190.767v-18.62c-4.543 1.287-8.414 3.717-11.416 6.964l-0.015 0.016-0.313 0.543c-0.005 0.056-0.007 0.122-0.007 0.188s0.003 0.132 0.008 0.197l-0.001-0.009v16.133c3.372-2.064 7.261-3.889 11.355-5.271l0.411-0.12zM742.588 180.005q5.914 0.104 11.828 0.376v-19.519c-5.141-0.251-10.449-0.397-15.673-0.46v19.54h3.239zM793.182 165.042c-1.714-0.293-3.448-0.585-5.245-0.857l-3.114-0.46-3.030-0.397v19.289q6.060 0.731 11.766 1.651v-19.226zM766.642 161.698c-1.463-0.125-2.968-0.209-4.451-0.313v19.435c3.971 0.272 7.899 0.585 11.766 0.961v-19.435c-2.278-0.23-4.556-0.481-6.896-0.669zM811.426 169.054c-1.944-0.543-4.012-1.045-6.123-1.546l-2.988-0.669-0.92-0.188v19.017c4.18 0.815 8.088 1.714 11.766 2.717v-18.934zM832.679 207.193c-0.355-2.654-6.395-6.269-17.157-9.529v0c-18.741-5.397-40.366-8.797-62.685-9.417l-0.364-0.008-4.18-0.167-3.553-0.104c-3.239 0-6.541-0.125-9.927-0.125s-6.687 0-9.927 0.125l-3.594 0.063-4.18 0.167c-22.683 0.627-44.308 4.028-64.903 9.875l1.854-0.45c-10.679 3.302-16.718 6.813-17.136 9.467-0.005 0.035-0.007 0.074-0.007 0.115s0.003 0.080 0.008 0.12v-0.005l0.836-0.188c1.526-0.355 3.114-0.711 4.702-1.045 7.795-1.672 16.405-3.051 25.6-4.18h0.084c6.269-0.711 12.769-1.275 19.435-1.672h0.23q7.21-0.418 14.629-0.606c3.009 0 5.977-0.104 8.861-0.104h6.269c25.982 0.007 51.188 3.314 75.226 9.527l-2.083-0.457 2.487 0.731 1.484 0.46c1.421 0.46 2.779 0.92 4.18 1.4l0.669 0.251c1.108 0.418 2.090 0.857 3.197 1.296l0.857 0.376c1.087 0.481 2.090 0.982 3.114 1.505l1.233 0.711 1.379 0.815 0.773 0.46c17.512-3.699 22.152-7.879 22.591-9.488zM711.262 270.054c64.616 0 97.301-10.177 97.907-16.008-0.481-2.654-6.499-6.144-17.136-9.446v0c-18.741-5.397-40.366-8.797-62.685-9.417l-0.364-0.008-4.18-0.167-3.553-0.104c-3.239 0-6.541-0.125-9.927-0.125s-6.687 0-9.927 0.125l-3.553 0.104-4.18 0.167c-22.71 0.62-44.364 4.021-64.987 9.875l1.854-0.45c-10.658 3.302-16.718 6.792-17.136 9.446 0.564 5.831 33.249 16.008 97.865 16.008zM613.292 226.962v16.238c3.372-2.064 7.261-3.889 11.355-5.271l0.411-0.12v-18.808c-7.628 2.905-11.766 5.768-11.766 7.962zM632.268 172.732l0.209-0.188c8.454-6.489 18.727-11.040 29.925-12.803l0.377-0.049 0.982-0.209 3.093-0.669c12.857-2.749 28.076-4.755 43.606-5.589l0.76-0.033q7.962-0.46 16.28-0.627c2.445 0 4.869 0 7.231 0 2.696 0 5.475 0 8.359 0 5.12 0.104 10.177 0.313 15.151 0.606h0.146c16.602 0.882 32.12 2.948 47.222 6.139l-1.978-0.35c-3.257-1.663-7.102-3.205-11.095-4.405l-0.503-0.13c-20.215-5.765-43.483-9.244-67.509-9.59l-0.2-0.002h-5.559c-2.466 0-4.953 0-7.502 0-3.385 0-6.687 0-9.927 0.125l-3.553 0.104-4.18 0.167c-22.663 0.566-44.305 3.909-64.922 9.702l1.852-0.444c-10.783 3.323-16.718 6.875-17.157 9.529 0.439 1.463 4.347 5.204 18.892 8.714zM613.292 136.85v16.217c3.372-2.064 7.261-3.889 11.355-5.271l0.411-0.12v-18.683l-2.257 0.878c-6.186 2.487-9.509 4.995-9.509 6.98zM625.058 93.738v16.217c3.372-2.064 7.261-3.889 11.355-5.271l0.411-0.12v-18.808c-7.649 2.905-11.766 5.789-11.766 7.983zM809.232 85.817v18.808c4.504 1.503 8.394 3.328 12.023 5.537l-0.258-0.146v-16.217c-0.042-2.257-4.159-5.12-11.786-7.983zM820.935 120.863c-0.418-2.654-6.437-6.269-17.157-9.488v0c-18.741-5.397-40.366-8.797-62.685-9.417l-0.364-0.008-4.18-0.167-3.553-0.104c-3.239 0-6.541-0.125-9.927-0.125s-6.687 0-9.947 0.125l-3.511 0.104-4.18 0.167c-22.684 0.628-44.308 4.028-64.903 9.875l1.854-0.45c-10.449 3.197-16.342 6.604-17.095 9.237 1.17-0.418 2.382-0.794 3.615-1.191l0.376-0.104 3.239-0.94 1.275-0.355 1.923-0.502c15.321-3.818 33.216-6.47 51.567-7.392l0.678-0.027c6.081-0.355 12.267-0.585 18.536-0.669h4.953c2.090 0 4.368 0 6.604 0 5.726 0 11.368 0.313 16.886 0.627v0c6.729 0.397 13.228 0.982 19.477 1.693v0h0.251c6.959 0.794 13.563 1.797 19.686 2.947l3.741 0.711 0.815 0.167c10.681 1.889 20.231 5.107 29.071 9.534l-0.608-0.276 1.087 0.627 1.254 0.794c0.376 0.251 0.815 0.481 1.149 0.731 7.753-2.675 9.843-5.162 10.052-6.144zM820.935 172.022v18.808c4.504 1.503 8.394 3.328 12.023 5.537l-0.258-0.146v-16.217c0.021-2.257-4.117-5.12-11.724-7.983z" />
<glyph unicode="&#xe939;" glyph-name="floating-add-action-btn" d="M503.121 690.682h136.139c49.035 0 88.786-39.751 88.786-88.786v-130.22c0-49.035-39.751-88.786-88.786-88.786h-136.139c-49.035 0-88.786 39.751-88.786 88.786v130.22c0 49.035 39.751 88.786 88.786 88.786z" />
<glyph unicode="&#xe93a;" glyph-name="leave-status-icons" d="M655.902 498.196c0-11.089-8.989-20.078-20.078-20.078s-20.078 8.989-20.078 20.078c0 11.089 8.989 20.078 20.078 20.078s20.078-8.989 20.078-20.078zM692.706 677.235h-27.186v20.902c0.006 0.193 0.010 0.42 0.010 0.648 0 11.555-9.367 20.922-20.922 20.922s-20.922-9.367-20.922-20.922c0-0.228 0.004-0.455 0.011-0.681l-0.001 0.033v-20.902h-95.172v20.902c0.006 0.193 0.010 0.42 0.010 0.648 0 11.555-9.367 20.922-20.922 20.922s-20.922-9.367-20.922-20.922c0-0.228 0.004-0.455 0.011-0.681l-0.001 0.033v-20.902h-94.128v20.902c0.006 0.193 0.010 0.42 0.010 0.648 0 11.555-9.367 20.922-20.922 20.922s-20.922-9.367-20.922-20.922c0-0.228 0.004-0.455 0.011-0.681l-0.001 0.033v-20.902h-26.102c-46.207-0.023-83.661-37.463-83.707-83.662v-326.279c0.046-46.19 37.477-83.621 83.662-83.667h160.009c0.193-0.006 0.42-0.010 0.648-0.010 11.555 0 20.922 9.367 20.922 20.922s-9.367 20.922-20.922 20.922c-0.228 0-0.455-0.004-0.681-0.011l0.033 0.001h-160.005c-23.1 0.023-41.821 18.743-41.843 41.841v326.277c0.034 23.092 18.75 41.801 41.841 41.823h26.104v-20.902c0.36-11.273 9.585-20.274 20.912-20.274s20.551 9.001 20.911 20.241l0.001 0.033v20.902h94.168v-20.902c0.36-11.273 9.585-20.274 20.912-20.274s20.551 9.001 20.911 20.241l0.001 0.033v20.902h95.172v-20.902c-0.006-0.193-0.010-0.42-0.010-0.648 0-11.555 9.367-20.922 20.922-20.922s20.922 9.367 20.922 20.922c0 0.228-0.004 0.455-0.011 0.681l0.001-0.033v20.902h27.186c23.085-0.034 41.789-18.739 41.823-41.82v-119.209c-0.006-0.193-0.010-0.42-0.010-0.648 0-11.555 9.367-20.922 20.922-20.922s20.922 9.367 20.922 20.922c0 0.228-0.004 0.455-0.011 0.681l0.001-0.033v119.206c-0.046 46.182-37.466 83.61-83.641 83.667h-0.006zM649.778 436.716c-69.861 0-126.494-56.633-126.494-126.494s56.633-126.494 126.494-126.494c69.861 0 126.494 56.633 126.494 126.494v0c-0.103 69.819-56.675 126.391-126.484 126.494h-0.010zM649.778 225.471c-46.785 0-84.711 37.926-84.711 84.711s37.926 84.711 84.711 84.711c46.785 0 84.711-37.926 84.711-84.711v0c-0.057-46.762-37.949-84.654-84.705-84.711h-0.006zM575.588 498.196c0-11.089-8.989-20.078-20.078-20.078s-20.078 8.989-20.078 20.078c0 11.089 8.989 20.078 20.078 20.078s20.078-8.989 20.078-20.078zM475.196 397.804c0-11.089-8.989-20.078-20.078-20.078s-20.078 8.989-20.078 20.078c0 11.089 8.989 20.078 20.078 20.078s20.078-8.989 20.078-20.078zM394.883 498.196c0-11.089-8.989-20.078-20.078-20.078s-20.078 8.989-20.078 20.078c0 11.089 8.989 20.078 20.078 20.078s20.078-8.989 20.078-20.078zM394.883 397.804c0-11.089-8.989-20.078-20.078-20.078s-20.078 8.989-20.078 20.078c0 11.089 8.989 20.078 20.078 20.078s20.078-8.989 20.078-20.078zM394.883 317.49c0-11.089-8.989-20.078-20.078-20.078s-20.078 8.989-20.078 20.078c0 11.089 8.989 20.078 20.078 20.078s20.078-8.989 20.078-20.078zM475.196 317.49c0-11.089-8.989-20.078-20.078-20.078s-20.078 8.989-20.078 20.078c0 11.089 8.989 20.078 20.078 20.078s20.078-8.989 20.078-20.078zM475.196 498.196c0-11.089-8.989-20.078-20.078-20.078s-20.078 8.989-20.078 20.078c0 11.089 8.989 20.078 20.078 20.078s20.078-8.989 20.078-20.078zM742.902 317.49c0-55.445-44.947-100.392-100.392-100.392s-100.392 44.947-100.392 100.392c0 55.445 44.947 100.392 100.392 100.392s100.392-44.947 100.392-100.392z" />
<glyph unicode="&#xe93b;" glyph-name="list-of-departments" horiz-adv-x="1022" d="M818.013 686.854c-0.084 0-0.183 0-0.282 0-53.392 0-101.947-20.708-138.072-54.53l0.112 0.104c-6.036-5.656-11.629-11.556-16.86-17.772l-0.255-0.311-109.513 78.951c15.625 25.715 24.873 56.803 24.873 90.051 0 66.973-37.525 125.182-92.698 154.748l-0.939 0.46c-2.137 1.242-4.703 1.975-7.44 1.975-8.285 0-15.001-6.716-15.001-15.001 0-5.895 3.4-10.995 8.346-13.448l0.087-0.039c46.597-24.901 77.765-73.22 77.765-128.818 0-80.4-65.177-145.576-145.576-145.576s-145.576 65.177-145.576 145.576c0 80.387 65.156 145.556 145.538 145.576h0.002c2.241 0 4.508 0 6.749-0.153 0.505-0.060 1.090-0.095 1.684-0.095 8.285 0 15.001 6.716 15.001 15.001s-6.716 15.001-15.001 15.001c-0.162 0-0.324-0.003-0.485-0.008l0.023 0.001c-2.674 0.178-5.399 0.178-8.099 0.178-0.030 0-0.066 0-0.101 0-96.927 0-175.501-78.575-175.501-175.501s78.575-175.501 175.501-175.501c53.172 0 100.822 23.646 133.006 60.997l0.192 0.228 109.513-78.951c-16.158-25.887-26.726-56.811-29.272-89.981l-0.042-0.686c-0.057-0.492-0.090-1.061-0.090-1.639 0-8.285 6.716-15.001 15.001-15.001 8.073 0 14.656 6.377 14.988 14.368l0.001 0.030c7.083 89.502 81.457 159.447 172.167 159.447 95.365 0 172.674-77.309 172.674-172.674s-77.309-172.674-172.674-172.674c-77.423 0-142.946 50.956-164.86 121.161l-0.329 1.223c-2.103 5.911-7.649 10.067-14.166 10.067-8.285 0-15.001-6.716-15.001-15.001 0-1.351 0.179-2.661 0.514-3.907l-0.024 0.105c3.040-9.874 6.247-18.093 9.962-26.027l-0.514 1.221-122.247-67.007c-46.039 87.236-136.145 145.681-239.902 145.681-149.321 0-270.37-121.049-270.37-270.37 0-49.331 13.212-95.576 36.29-135.391l-0.694 1.297c2.696-4.258 7.381-7.044 12.717-7.044 8.285 0 15.001 6.716 15.001 15.001 0 2.507-0.615 4.871-1.703 6.948l0.039-0.083c-19.753 34.17-31.407 75.165-31.407 118.883 0 132.935 107.765 240.7 240.7 240.7s240.7-107.765 240.7-240.7c0-132.935-107.765-240.7-240.7-240.7-66.239 0-126.229 26.756-169.751 70.051l0.010-0.010c-2.753 3.010-6.698 4.891-11.082 4.891-8.285 0-15.001-6.716-15.001-15.001 0-4.41 1.903-8.375 4.932-11.119l0.013-0.011c48.884-48.67 116.302-78.758 190.748-78.758 149.321 0 270.37 121.049 270.37 270.37 0 35.302-6.766 69.024-19.072 99.94l0.641-1.826 124.285 68.051c13.28-20.232 29.321-37.375 47.833-51.434l0.506-0.368c33.484-25.36 75.837-40.622 121.755-40.622 111.991 0 202.778 90.787 202.778 202.778 0 111.97-90.753 202.744-202.715 202.778h-0.003zM408.306 284.532c-2.194 1.798-3.618 4.465-3.743 7.467l-0.001 0.020c-0.613 37.239-30.945 67.191-68.272 67.191-2.722 0-5.407-0.159-8.046-0.469l0.32 0.031c-0.38-0.045-0.82-0.071-1.267-0.071-3.078 0-5.868 1.233-7.904 3.231l0.002-0.002c-12.297 12.022-29.14 19.439-47.715 19.439s-35.417-7.417-47.727-19.451l0.013 0.012c-2.030-1.997-4.817-3.231-7.893-3.231-0.45 0-0.893 0.026-1.329 0.078l0.053-0.005c-2.318 0.279-5.002 0.438-7.723 0.438-33.926 0-62.074-24.743-67.381-57.169l-0.053-0.395c-0.473-2.841-0.776-6.159-0.839-9.535l-0.001-0.066c-0.118-3.032-1.544-5.71-3.726-7.499l-0.018-0.014c-14.948-12.641-24.374-31.407-24.374-52.375 0-2.183 0.102-4.343 0.302-6.474l-0.021 0.273c1.226-12.735 5.818-24.205 12.864-33.752l-0.13 0.185c-5.887-7.383-9.446-16.849-9.446-27.146 0-1.733 0.101-3.442 0.297-5.123l-0.019 0.204c1.383-24.794 16.412-45.772 37.648-55.658l0.402-0.168c15.174-52.26 62.618-89.812 118.832-89.812 56.419 0 104.004 37.826 118.777 89.501l0.213 0.871c20.667 10.551 34.899 31.091 36.36 55.080l0.009 0.186c0.153 1.393 0.24 3.009 0.24 4.645 0 9.71-3.075 18.702-8.305 26.055l0.094-0.138c7.511 9.675 12.478 21.669 13.707 34.75l0.020 0.269c0.176 1.843 0.277 3.985 0.277 6.15 0 21.024-9.478 39.835-24.393 52.393l-0.104 0.085zM154.312 261.611c8.649 7.227 14.184 17.93 14.44 29.933l0.001 0.043c0.030 1.949 0.195 3.833 0.488 5.675l-0.029-0.225c2.934 17.535 17.409 30.922 35.23 32.16l0.12 0.007c0.718 0.047 1.557 0.074 2.402 0.074 1.559 0 3.096-0.092 4.607-0.27l-0.183 0.018c1.411-0.172 3.044-0.269 4.7-0.269 11.225 0 21.4 4.497 28.822 11.787l-0.006-0.006c6.885 6.753 16.327 10.92 26.742 10.92s19.856-4.168 26.748-10.926l-0.006 0.006c7.412-7.285 17.584-11.782 28.807-11.782 1.66 0 3.296 0.098 4.904 0.29l-0.195-0.019c1.328 0.161 2.865 0.253 4.424 0.253 0.845 0 1.684-0.027 2.515-0.080l-0.114 0.006c17.941-1.244 32.415-14.631 35.319-31.941l0.031-0.225c0.262-1.609 0.428-3.484 0.458-5.392v-0.032c0.257-12.046 5.792-22.749 14.377-29.925l0.063-0.052c8.374-7.055 13.658-17.548 13.658-29.275 0-9.534-3.493-18.253-9.268-24.946l0.042 0.049c-7.843 45.686-47.155 80.014-94.486 80.021h-55.369c-47.019-0.061-86.095-33.992-94.145-78.7l-0.087-0.582c-5.363 6.527-8.615 14.967-8.615 24.166 0 11.75 5.305 22.261 13.65 29.269l0.059 0.048zM396.718 162.514c-1.172-15.816-12.734-29.798-19.076-29.874-7.221-0.071-13.213-5.242-14.552-12.079l-0.015-0.095c-8.585-43.509-46.433-75.868-91.838-75.868s-83.253 32.359-91.74 75.274l-0.098 0.594c-1.375 6.977-7.441 12.168-14.72 12.174h-1.325c-6.342 0-17.828 14.39-19.101 29.874-0.183 0.825-0.288 1.772-0.288 2.743 0 3.457 1.33 6.603 3.505 8.956l-0.008-0.009c3.456 2.795 7.89 4.506 12.722 4.559h0.012c0.213 0.017 0.462 0.026 0.713 0.026s0.5-0.009 0.746-0.028l-0.033 0.002c0.314-0.023 0.68-0.037 1.049-0.037 8.154 0 14.789 6.506 14.996 14.611v0.019c1.128 35.544 30.102 63.957 65.763 64.18h55.441c0.11 0.001 0.239 0.001 0.369 0.001 35.687 0 64.701-28.572 65.414-64.089l0.001-0.067c0.213-8.112 6.834-14.607 14.974-14.619h1.071c17.14-1.35 16.376-11.486 16.019-16.249zM239.783 175.35c0-8.046-6.522-14.568-14.568-14.568s-14.568 6.522-14.568 14.568c0 8.046 6.522 14.568 14.568 14.568s14.568-6.522 14.568-14.568zM331.851 175.35c0-8.046-6.522-14.568-14.568-14.568s-14.568 6.522-14.568 14.568c0 8.046 6.522 14.568 14.568 14.568s14.568-6.522 14.568-14.568zM304.039 120.262h-64.817c-2.681-0.007-4.852-2.182-4.852-4.864 0-0.623 0.117-1.218 0.33-1.765l-0.011 0.033c5.918-14.905 20.215-25.252 36.929-25.252s31.011 10.347 36.835 24.985l0.094 0.268c0.202 0.514 0.319 1.109 0.319 1.732 0 2.673-2.156 4.843-4.825 4.864h-0.002zM719.808 431.688c11.482-44.619 51.355-77.059 98.805-77.059 47.671 0 87.694 32.744 98.807 76.967l0.15 0.703c16.111 9.424 27.071 26.135 28.362 45.492l0.009 0.173c0.174 1.344 0.274 2.899 0.274 4.478 0 16.427-10.785 30.335-25.66 35.029l-0.26 0.071c-3.387 53.51-47.616 95.627-101.681 95.627-53.931 0-98.074-41.907-101.64-94.934l-0.017-0.311c-15.764-4.382-27.141-18.608-27.141-35.492 0-1.575 0.099-3.127 0.291-4.649l-0.019 0.181c1.276-20.043 12.84-37.123 29.424-46.128l0.297-0.148zM729.995 489.984h0.713c0.312-0.023 0.677-0.036 1.044-0.036 8.271 0 14.975 6.705 14.975 14.975 0 0.004 0 0.008 0 0.012v-0.001 6.851c0 39.686 32.172 71.859 71.859 71.859s71.859-32.172 71.859-71.859v0-6.8c0-8.285 6.716-15.001 15.001-15.001v0h0.535c10.697-0.79 10.187-6.010 10.034-9.805-0.376-8.901-5.151-16.61-12.193-21.050l-0.108-0.064c-7.182-0.406-12.986-5.817-13.998-12.781l-0.010-0.081c-5.162-35.055-35.034-61.659-71.12-61.659s-65.958 26.604-71.073 61.268l-0.047 0.391c-1.071 7.316-7.295 12.872-14.821 12.887h-0.384c-3.031 0-11.461 9.958-12.276 21.113-0.28 3.769-0.662 8.99 10.009 9.78zM792.239 427.74c7.182-5.070 16.118-8.103 25.761-8.103s18.579 3.033 25.903 8.198l-0.142-0.095c1.542 1.139 2.531 2.95 2.531 4.992 0 3.418-2.771 6.189-6.189 6.189-0.012 0-0.024 0-0.037 0h-44.134c-0.010 0-0.023 0-0.035 0-3.418 0-6.189-2.771-6.189-6.189 0-2.042 0.989-3.853 2.514-4.98l0.017-0.012zM326.502 810.451c-11.508-4.439-19.524-15.41-19.524-28.254 0-1.28 0.080-2.542 0.234-3.78l-0.015 0.148c0.983-15.168 9.381-28.181 21.575-35.543l0.201-0.112c9.317-32.602 38.849-56.065 73.861-56.065 35.207 0 64.872 23.726 73.88 56.061l0.128 0.539c11.812 7.641 19.772 20.367 20.774 35.006l0.008 0.14c0.142 1.099 0.223 2.371 0.223 3.662 0 12.499-7.604 23.221-18.439 27.794l-0.198 0.074c-3.536 39.402-36.399 70.050-76.421 70.050-39.895 0-72.677-30.456-76.365-69.386l-0.024-0.308zM449.539 802.81v-4.839c0.029-8.291 6.757-15.001 15.052-15.001 0.009 0 0.018 0 0.027 0h-0.001c1.096-0.045 2.122-0.294 3.059-0.709l-0.053 0.021c0.032-0.245 0.051-0.528 0.051-0.815s-0.018-0.57-0.054-0.848l0.003 0.033c-0.413-4.384-2.403-8.239-5.39-11.045l-0.009-0.008c-6.831-0.741-12.246-5.973-13.259-12.651l-0.010-0.083c-3.354-22.793-22.776-40.091-46.238-40.091s-42.884 17.298-46.207 39.837l-0.031 0.254c-1.046 7.104-6.948 12.543-14.18 12.86l-0.032 0.001c-2.934 2.824-4.884 6.653-5.292 10.932l-0.005 0.071c-0.033 0.245-0.052 0.528-0.052 0.815s0.019 0.57 0.055 0.848l-0.004-0.033c0.867 0.394 1.876 0.642 2.938 0.687l0.017 0.001c0.312-0.023 0.677-0.036 1.044-0.036 8.271 0 14.975 6.705 14.975 14.975 0 0.004 0 0.008 0 0.012v-0.001 4.864c0 25.804 20.918 46.721 46.721 46.721s46.721-20.918 46.721-46.721v0zM794.735 483.999c0-7.877-6.385-14.262-14.262-14.262s-14.262 6.385-14.262 14.262c0 7.877 6.385 14.262 14.262 14.262s14.262-6.385 14.262-14.262zM869.816 483.999c0-7.877-6.385-14.262-14.262-14.262s-14.262 6.385-14.262 14.262c0 7.877 6.385 14.262 14.262 14.262s14.262-6.385 14.262-14.262zM816.256 653.108l25.468-50.936h-50.936zM816.256 653.108l25.468-50.936h-50.936l25.468 50.936zM408.765 653.108l-25.468 50.936h50.936zM408.765 653.108l-25.468 50.936h50.936l-25.468-50.936z" />
<glyph unicode="&#xe93c;" glyph-name="list-of-designations" d="M36.559 69.447l205.214-118c7.426-4.043 16.262-6.42 25.654-6.42s18.229 2.377 25.942 6.563l-0.287-0.143 213.755 121.42 213.755-121.42c7.426-4.043 16.262-6.42 25.654-6.42s18.229 2.377 25.942 6.563l-0.287-0.143 205.214 118c15.433 8.969 25.644 25.425 25.644 44.265 0 0.071 0 0.142 0 0.214v-0.011 249.682c0 0.060 0 0.131 0 0.203 0 18.84-10.211 35.296-25.401 44.134l-0.243 0.131-213.755 123.12v259.943c0 0.056 0 0.123 0 0.19 0 18.849-10.22 35.311-25.422 44.147l-0.244 0.131-205.214 118c-7.426 4.043-16.262 6.42-25.654 6.42s-18.229-2.377-25.942-6.563l0.287 0.143-205.192-118c-15.433-8.969-25.644-25.425-25.644-44.265 0-0.071 0-0.142 0-0.214v0.011-261.643l-213.776-121.42c-15.421-8.972-25.622-25.421-25.622-44.253 0-0.076 0-0.151 0-0.227v0.012-251.381c0.434-18.29 10.546-34.123 25.397-42.616l0.247-0.13zM267.504 151.541l-22.223 22.223c3.237 6.76 5.127 14.695 5.127 23.071 0 0.315-0.003 0.629-0.008 0.942l0.001-0.047v29.064l-15.382 30.785c-1.121 2.085-1.78 4.562-1.78 7.194 0 0.474 0.021 0.943 0.063 1.407l-0.004-0.060v32.507c0 18.891 15.315 34.206 34.206 34.206s34.206-15.315 34.206-34.206v-32.507c0-3.421 0-5.12-1.699-6.841l-15.404-32.485v-29.086c0.059-8.686 1.946-16.917 5.295-24.346l-0.153 0.38zM318.813 197.708v22.245l11.983 23.966c3.172 6.5 5.054 14.134 5.12 22.201v32.507c0.007 0.363 0.011 0.792 0.011 1.221 0 37.783-30.629 68.412-68.412 68.412s-68.412-30.629-68.412-68.412c0-0.429 0.004-0.858 0.012-1.285l-0.001 0.064v-32.507c-0.004-0.229-0.006-0.499-0.006-0.769 0-7.829 1.903-15.214 5.272-21.717l-0.124 0.263 11.961-23.966v-22.245c-0.619-7.61-5.292-13.999-11.835-17.050l-0.127-0.053-54.73-15.382 10.262 133.403c4.631 55.844 51.096 99.413 107.738 99.413s103.107-43.569 107.712-99.021l0.026-0.391 10.262-133.403-54.73 15.382c-6.675 3.102-11.355 9.49-11.978 17.029l-0.005 0.074zM130.614 112.215c0.623 7.615 5.305 14.005 11.856 17.050l0.127 0.053 70.111 20.524c1.721 0 5.12 1.721 6.841 1.721l23.966-23.966-44.49-44.446v-68.412l-68.412 39.326zM275.979-19.467c-2.407-1.61-5.367-2.57-8.551-2.57s-6.145 0.96-8.608 2.605l0.056-0.035-25.709 15.382v73.532l82.094 82.094c1.616-1.113 3.617-1.777 5.772-1.777 0.377 0 0.749 0.020 1.115 0.060l-0.045-0.004 70.111-20.524c6.997-2.201 11.984-8.629 11.984-16.223 0-0.31-0.008-0.617-0.025-0.923l0.002 0.043v-58.15zM575.227 760.342c-6.365 3.083-13.843 4.885-21.743 4.885-10.361 0-19.998-3.1-28.034-8.423l0.189 0.117-18.802-10.262-18.759 10.262c-8.121 4.765-17.885 7.579-28.306 7.579-7.679 0-15.001-1.528-21.679-4.297l0.376 0.138v34.206c-0.018 0.289-0.029 0.626-0.029 0.966 0 8.928 7.238 16.166 16.166 16.166 0.34 0 0.677-0.010 1.012-0.031l-0.046 0.002h102.618c0.289 0.018 0.626 0.029 0.966 0.029 8.928 0 16.166-7.238 16.166-16.166 0-0.34-0.010-0.677-0.031-1.012l0.002 0.046zM438.425 709.033c0.228 12.188 10.055 22.007 22.224 22.223h0.020c4.425-0.368 8.489-1.591 12.135-3.504l-0.174 0.083 35.905-22.223 35.905 22.223c3.202 2.268 7.188 3.626 11.491 3.626 7.556 0 14.134-4.185 17.543-10.364l0.052-0.103c2.051-3.425 3.308-7.535 3.42-11.93l0.001-0.032v-37.627c0.004-0.131 0.006-0.286 0.006-0.441 0-4.572-1.973-8.684-5.113-11.53l-0.013-0.012-42.747-42.747-22.245-20.524-61.571 61.571c-3.166 2.852-5.147 6.965-5.147 11.541 0 0.148 0.002 0.295 0.006 0.441v-0.022 39.37zM643.638 481.574l-104.317-59.85 27.365 71.898c1.83 5.205 2.888 11.207 2.888 17.456 0 14.45-5.654 27.58-14.871 37.298l0.023-0.024-23.966 23.966 32.485 32.485 68.412-22.245c6.828-1.965 11.772-8.071 11.961-15.361v-0.021zM506.836 548.221l23.966-23.966c3.185-2.868 5.179-7.005 5.179-11.608 0-2.629-0.65-5.106-1.799-7.279l0.041 0.085-27.365-73.532-27.365 73.532c-0.415 1.662-0.654 3.57-0.654 5.534 0 4.95 1.515 9.546 4.105 13.351l-0.053-0.082zM450.408 604.65l32.485-32.463-23.966-23.966c-9.266-9.598-14.975-22.682-14.975-37.099 0-6.317 1.096-12.378 3.108-18.003l-0.116 0.373 27.365-71.898-104.317 59.85v82.247c0.2 7.314 5.15 13.419 11.867 15.353l0.116 0.029zM754.797-19.554c-2.407-1.61-5.367-2.57-8.551-2.57s-6.145 0.96-8.608 2.605l0.056-0.035-128.261 73.532v82.181c0.2 7.314 5.15 13.419 11.867 15.353l0.116 0.029 68.412 22.223c14.53-14.256 34.457-23.054 56.44-23.054s41.91 8.799 56.453 23.067l-0.013-0.012 68.412-22.223c6.824-1.971 11.764-8.073 11.961-15.36v-82.116zM677.844 298.54v3.486l68.412 13.682 68.412-13.682v-44.446c-0.382-3.838-1.605-7.325-3.481-10.366l0.060 0.105-27.365-42.747c-8.233-11.422-21.499-18.771-36.482-18.771-10.863 0-20.824 3.863-28.584 10.29l0.075-0.060c-3.421 3.421-6.841 5.12-8.541 8.541l-27.365 42.747c-1.815 2.937-3.037 6.424-3.412 10.16l-0.008 0.102v41.047zM814.668 336.232l-68.412 13.726-68.412-13.682v30.742c-0.018 0.289-0.029 0.626-0.029 0.966 0 8.928 7.238 16.166 16.166 16.166 0.34 0 0.677-0.010 1.012-0.031l-0.046 0.002h119.721zM960.033 378.978c5.158-3.209 8.541-8.847 8.541-15.276 0-0.037 0-0.075 0-0.112v0.006-251.381c0-0.028 0-0.061 0-0.094 0-6.432-3.382-12.073-8.465-15.244l-0.076-0.044-42.747-22.245v63.183c0.002 0.153 0.003 0.334 0.003 0.515 0 22.452-15.020 41.395-35.56 47.331l-0.348 0.086-58.15 18.802 15.404 23.966c5.167 8.275 8.316 18.28 8.54 29.003l0.001 0.061v160.79h-153.927c-0.275 0.005-0.599 0.008-0.924 0.008-27.832 0-50.394-22.562-50.394-50.394 0-0.325 0.003-0.649 0.009-0.972l-0.001 0.048v-109.437c0.22-10.785 3.369-20.79 8.682-29.307l-0.141 0.243 15.382-23.966-58.15-18.802c-19.175-7.491-32.511-25.82-32.511-47.264 0-0.235 0.002-0.469 0.005-0.703v0.035-63.183l-51.265 29.13v271.818c3.421 1.699 5.142 1.699 8.541 3.421l213.755 121.42zM293.082 806.531l205.214 118c2.407 1.61 5.367 2.57 8.551 2.57s6.145-0.96 8.608-2.605l-0.056 0.035 205.214-118c5.158-3.209 8.541-8.847 8.541-15.276 0-0.037 0-0.075 0-0.112v0.006-261.665l-51.309-29.064v63.183c0.002 0.153 0.003 0.334 0.003 0.515 0 22.452-15.020 41.395-35.56 47.331l-0.348 0.086-53.008 17.103 5.12 5.12c9.482 8.99 15.382 21.677 15.382 35.742 0 0.057 0 0.115 0 0.172v-0.009 124.884c0.005 0.275 0.008 0.599 0.008 0.924 0 27.832-22.562 50.394-50.394 50.394-0.325 0-0.649-0.003-0.972-0.009l0.048 0.001h-102.618c-0.275 0.005-0.599 0.008-0.924 0.008-27.832 0-50.394-22.562-50.394-50.394 0-0.325 0.003-0.649 0.009-0.972l-0.001 0.048v-123.141c-0.011-0.382-0.018-0.83-0.018-1.281 0-13.725 5.936-26.063 15.38-34.588l0.041-0.036 5.12-5.12-53.008-17.103c-20.888-6.021-35.908-24.965-35.908-47.417 0-0.181 0.001-0.362 0.003-0.543v0.028-63.183l-51.309 29.064v259.9c0 0.028 0 0.061 0 0.094 0 6.432 3.382 12.073 8.465 15.244l0.076 0.044zM45.1 363.596c0 0.028 0 0.061 0 0.094 0 6.432 3.382 12.073 8.465 15.244l0.076 0.044 213.755 121.42 213.755-121.42c3.421-1.721 5.142-1.721 8.541-3.421v-271.796l-51.309-29.064v37.518c0.001 0.127 0.002 0.278 0.002 0.429 0 14.851-6.606 28.158-17.041 37.144l-0.064 0.054-11.918 152.184c-6.447 74.187-68.261 131.964-143.569 131.964-3.046 0-6.070-0.095-9.070-0.281l0.411 0.020c-70.109-6.165-125.519-61.589-131.622-131.158l-0.039-0.546-11.983-152.206c-10.039-9.529-16.474-22.77-17.099-37.515l-0.004-0.112v-37.627l-42.747 23.966c-5.159 3.219-8.541 8.865-8.541 15.3 0 0.029 0 0.058 0 0.086v-0.004zM318.769 110.472h51.309v-34.206h-51.309zM729.197 127.575h34.206v-34.206h-34.206zM729.197 59.163h34.206v-34.206h-34.206zM797.609 127.575h51.309v-34.206h-51.309zM592.395 555.106h34.206v-34.206h-34.206z" />
<glyph unicode="&#xe93d;" glyph-name="notification" d="M828.956 420.073v167.452c-0.238 108.76-64.527 202.446-157.138 245.362l-1.675 0.696c-18.33 8.614-39.991 16.365-62.463 22.082l-2.588 0.558v10.687c0 51.413-41.678 93.091-93.091 93.091s-93.091-41.678-93.091-93.091v0-12.307c-22.747-6.176-42.213-13.412-60.827-22.158l2.254 0.952c-81.51-37.553-164.101-128.112-164.845-245.76v-167.564c0.043-2.215 0.067-4.827 0.067-7.445 0-115.957-47.778-220.754-124.723-295.78l-0.086-0.084c-3.396-3.374-5.498-8.046-5.498-13.21 0-9.166 6.624-16.785 15.346-18.332l0.112-0.016 176.705-30.515c32.917-5.679 63.302-10.333 92.067-14.168 30.361-62.357 93.256-104.568 166.009-104.568s135.648 42.211 165.529 103.478l0.48 1.090c28.728 3.817 58.889 8.453 91.62 14.113l176.687 30.515c8.835 1.563 15.459 9.182 15.459 18.348 0 5.164-2.102 9.836-5.497 13.209l-0.001 0.001c-80.621 76.095-130.812 183.685-130.812 302.998 0 0.129 0 0.258 0 0.387v-0.020zM456.145 866.909c0 30.848 25.007 55.855 55.855 55.855s55.855-25.007 55.855-55.855v0-3.389c-15.923 2.426-34.294 3.812-52.988 3.812-20.734 0-41.069-1.705-60.874-4.981l2.153 0.294zM515.407-26.764c-49.009 0.477-92.308 24.506-119.178 61.296l-0.295 0.423c35.676-4.011 77.141-6.349 119.134-6.442h0.134c42.274 0.084 83.893 2.442 124.861 6.958l-5.146-0.461c-27.166-37.24-70.479-61.291-119.434-61.775l-0.077-0.001zM766.753 91.406c-35.728-6.163-68.478-11.171-99.421-15.118h-0.13c-13.647-1.731-26.903-3.24-39.88-4.543h-0.317c-11.897-1.192-23.515-2.16-35.021-2.979l-6.461-0.428c-9.961-0.652-19.81-1.173-29.603-1.545-1.992 0-4.003-0.186-5.995-0.242-23.161-0.782-46.006-0.782-69.148 0l-6.218 0.261c-9.626 0.391-19.326 0.875-29.137 1.527l-7 0.465c-11.171 0.801-22.342 1.731-33.96 2.886l-1.266 0.112c-12.884 1.285-26.065 2.793-39.545 4.506h-0.168c-31.055 3.928-63.935 8.974-99.812 15.155l-142.653 24.576c69.405 78.536 111.779 182.376 111.779 296.112 0 2.786-0.025 5.565-0.076 8.339l0.006-0.416v167.452c0.633 101.19 72.387 179.423 143.192 212.080 18.549 8.757 40.29 16.325 62.917 21.585l2.247 0.44c0.186 0 0.391 0 0.577 0 22.097 5.138 47.471 8.083 73.533 8.083 23.926 0 47.272-2.482 69.795-7.204l-2.202 0.386c0.242 0 0.484 0 0.726 0 27.023-5.678 50.83-13.697 73.294-24.12l-2.080 0.866c80.835-38.093 135.994-118.489 136.991-211.874l0.001-0.131v-167.564c0.101-117.239 44.721-224.038 117.865-304.42l-0.328 0.366zM631.473 748.907c-34.128 15.64-74.037 24.758-116.075 24.758s-81.947-9.118-117.856-25.485l1.781 0.727c-40.867-18.879-110.182-74.007-110.741-161.159 0-0.033 0-0.073 0-0.112 0-10.243 8.272-18.555 18.501-18.618h0.118c0 0 0 0 0 0 10.243 0 18.554 8.272 18.618 18.5v0.006c0.428 68.459 56.208 112.361 89.088 127.535 29.561 13.543 64.128 21.438 100.538 21.438s70.978-7.895 102.081-22.068l-1.543 0.63c2.346-1.146 5.105-1.816 8.020-1.816 10.283 0 18.618 8.336 18.618 18.618 0 7.573-4.521 14.090-11.012 16.999l-0.118 0.047z" />
<glyph unicode="&#xe93e;" glyph-name="password-icon" d="M234.457-54.508c-64.41 0.819-116.308 53.224-116.308 117.751 0 0.405 0.002 0.809 0.006 1.213v-0.062 404.204c-0.004 0.342-0.006 0.746-0.006 1.151 0 64.527 51.899 116.932 116.231 117.75l0.077 0.001h69.711v162.934c0 115.609 93.72 209.329 209.329 209.329s209.329-93.72 209.329-209.329v-75.776h-77.548v75.776c-1.281 71.816-59.799 129.542-131.801 129.542s-130.52-57.726-131.799-129.422l-0.002-0.12v-162.934h411.018c64.41-0.819 116.308-53.224 116.308-117.751 0-0.405-0.002-0.809-0.006-1.213v0.062-404.204c0.004-0.342 0.006-0.746 0.006-1.151 0-64.527-51.899-116.932-116.231-117.75l-0.077-0.001zM195.663 468.598v-404.204c0-0.072-0.001-0.156-0.001-0.241 0-21.544 17.298-39.048 38.763-39.38h558.269c21.479 0.354 38.755 17.849 38.755 39.38 0 0.085 0 0.17-0.001 0.254v-0.013 404.204c0 0.072 0.001 0.156 0.001 0.241 0 21.53-17.276 39.025-38.722 39.379h-558.271c-21.479-0.354-38.755-17.849-38.755-39.38 0-0.085 0-0.17 0.001-0.254v0.013zM474.703 171.402v86.961c-19.939 13.381-32.887 35.838-32.887 61.319 0 0.098 0 0.196 0.001 0.294v-0.015c0 39.61 32.11 71.719 71.719 71.719s71.719-32.11 71.719-71.719v0c0-0.080 0-0.176 0-0.271 0-25.554-13.014-48.068-32.777-61.276l-0.268-0.168v-86.882c0.013-0.368 0.020-0.801 0.020-1.236 0-21.425-17.369-38.794-38.794-38.794s-38.794 17.369-38.794 38.794c0 0.435 0.007 0.868 0.021 1.299l-0.002-0.063z" />
<glyph unicode="&#xe93f;" glyph-name="personal-info-icon" d="M874.025 298.040c-53.291 53.487-118.359 95.202-190.989 120.928l-3.568 1.102c78.025 54.074 128.479 143.152 128.479 244.015 0 163.456-132.507 295.963-295.963 295.963s-295.963-132.507-295.963-295.963c0-100.862 50.454-189.94 127.5-243.372l0.979-0.642c-202.157-71.738-344.357-261.279-344.501-484.053v-0.018h80.003c2.077 237.011 194.693 428.344 431.997 428.344s429.92-191.333 431.995-428.147l0.001-0.197h80.003c0.001 0.408 0.002 0.892 0.002 1.376 0 140.955-57.334 268.518-149.954 360.642l-0.023 0.023zM511.984 448.016c-119.275 0.018-215.959 96.713-215.959 215.991 0 119.288 96.702 215.991 215.991 215.991 119.277 0 215.973-96.685 215.991-215.958v-0.001c-0.124-119.256-96.766-215.898-216.010-216.022h-0.012z" />
<glyph unicode="&#xe940;" glyph-name="project-list-icon" d="M332.015 719.986h302.065c16.569 0 30.002 13.432 30.002 30.002s-13.432 30.002-30.002 30.002h-302.065c-16.569 0-30.002-13.432-30.002-30.002s13.432-30.002 30.002-30.002v0zM870.356 873.63l-86.319-86.37v142.738c0 16.569-13.432 30.002-30.002 30.002h-544.126c-8.278-0.023-15.768-3.383-21.196-8.806v0l-179.908-179.959c-5.406-5.419-8.763-12.886-8.806-21.136v-664.039c0.087-82.812 67.196-149.921 150-150.008h604.138c82.812 0.087 149.921 67.196 150.008 150v59.909c0 16.569-13.432 30.002-30.002 30.002v0h-90.107v356.744l213.647 213.647c16.282 16.288 26.352 38.787 26.352 63.638 0 49.715-40.302 90.016-90.016 90.016-24.864 0-47.373-10.081-63.664-26.378v0zM180.010 857.605v-77.615h-77.615zM240.014 145.961v-60.003c0-49.708-40.297-90.005-90.005-90.005s-90.005 40.297-90.005 90.005v0 634.029h149.906c0.030 0 0.067 0 0.103 0 16.569 0 30.002 13.432 30.002 30.002 0 0.036 0 0.072 0 0.108v-0.006 149.906h484.021v-172.74l-67.273-67.273h-506.752c-16.569 0-30.002-13.432-30.002-30.002s13.432-30.002 30.002-30.002h446.698l-59.952-59.799h-386.745c-16.569 0-30.002-13.432-30.002-30.002s13.432-30.002 30.002-30.002h326.742l-32.152-32.152c-3.194-3.206-5.668-7.132-7.156-11.513l-0.062-0.211-5.376-16.127h-281.996c-16.569 0-30.002-13.432-30.002-30.002s13.432-30.002 30.002-30.002h261.977l-14.796-44.439-15.359-15.359h-231.822c-16.569 0-30.002-13.432-30.002-30.002s13.432-30.002 30.002-30.002h239.86c1.072-0.13 2.312-0.203 3.57-0.203 8.582 0 16.36 3.439 22.033 9.014l24.366 24.366 120.57 40.19c4.592 1.553 8.517 4.027 11.725 7.22l152.158 152.158v-296.945h-454.275c-16.569 0-30.002-13.432-30.002-30.002v0zM565.22 398.774l-30.718-30.718-63.485-21.247 21.196 63.638 30.718 30.718zM843.99 115.959v-30.002c-0.058-49.685-40.32-89.947-90-90.005h-484.026c18.76 24.689 30.053 55.943 30.053 89.834 0 0.060 0 0.12 0 0.181v-0.009 30.002zM891.552 725.209l-283.941-283.941-42.391 42.596 283.941 283.941zM955.191 788.847l-21.247-21.247-42.443 42.443 21.196 21.247c5.431 5.431 12.934 8.79 21.221 8.79 16.575 0 30.012-13.437 30.012-30.012 0-8.287-3.359-15.79-8.79-21.221v0z" />
<glyph unicode="&#xe941;" glyph-name="projects-calendar-icon" d="M938.676 823.476h-17.076v85.324c-0.030 28.265-22.935 51.17-51.197 51.2h-34.127c-28.265-0.030-51.17-22.935-51.2-51.197v-85.327h-546.151v85.324c-0.030 28.265-22.935 51.17-51.197 51.2h-34.127c-28.265-0.030-51.17-22.935-51.2-51.197v-85.327h-17.076c-47.108-0.061-85.279-38.241-85.324-85.347v-716.804c0.060-47.099 38.225-85.264 85.319-85.324h853.357c47.099 0.060 85.264 38.225 85.324 85.319v716.806c-0.045 47.111-38.216 85.291-85.319 85.351h-0.006zM819.2 806.4v102.4c0 9.431 7.645 17.076 17.076 17.076h34.124c9.431 0 17.076-7.645 17.076-17.076v0-170.676c0-9.431-7.645-17.076-17.076-17.076h-34.124c-9.431 0-17.076 7.645-17.076 17.076v0zM136.524 806.4v102.4c0 9.431 7.645 17.076 17.076 17.076h34.124c9.431 0 17.076-7.645 17.076-17.076v0-170.676c0-9.431-7.645-17.076-17.076-17.076v0h-34.124c-9.431 0-17.076 7.645-17.076 17.076v0zM989.876 21.324c-0.030-28.265-22.935-51.17-51.197-51.2h-853.354c-28.265 0.030-51.17 22.935-51.2 51.197v494.954h955.751zM989.876 550.4h-955.751v187.724c0.030 28.265 22.935 51.17 51.197 51.2h17.078v-51.2c0.030-28.265 22.935-51.17 51.197-51.2h34.127c28.265 0.030 51.17 22.935 51.2 51.197v51.203h546.151v-51.2c0.030-28.265 22.935-51.17 51.197-51.2h34.127c28.265 0.030 51.17 22.935 51.2 51.197v51.203h17.076c28.265-0.030 51.17-22.935 51.2-51.197v-0.003zM699.724 738.124h-375.449c-0.008 0-0.017 0-0.027 0-9.416 0-17.049-7.633-17.049-17.049 0-0.009 0-0.019 0-0.028v0.001-102.4c0-0.008 0-0.017 0-0.027 0-9.416 7.633-17.049 17.049-17.049 0.009 0 0.019 0 0.028 0h375.475c0.008 0 0.017 0 0.027 0 9.416 0 17.049 7.633 17.049 17.049 0 0.009 0 0.019 0 0.028v-0.001 102.4c0 0.008 0 0.017 0 0.027 0 9.416-7.633 17.049-17.049 17.049-0.019 0-0.037 0-0.056 0h0.003zM682.649 635.724h-341.324v68.276h341.324zM221.876 465.076h-102.4c-0.008 0-0.017 0-0.027 0-9.416 0-17.049-7.633-17.049-17.049 0-0.009 0-0.019 0-0.028v0.001-85.324c0-0.008 0-0.017 0-0.027 0-9.416 7.633-17.049 17.049-17.049 0.009 0 0.019 0 0.028 0h102.399c0.008 0 0.017 0 0.027 0 9.416 0 17.049 7.633 17.049 17.049 0 0.009 0 0.019 0 0.028v-0.001 85.324c0 0.008 0 0.017 0 0.027 0 9.416-7.633 17.049-17.049 17.049-0.009 0-0.019 0-0.028 0h0.001zM204.8 379.751h-68.276v51.2h68.276zM443.751 465.076h-102.4c-0.008 0-0.017 0-0.027 0-9.416 0-17.049-7.633-17.049-17.049 0-0.009 0-0.019 0-0.028v0.001-85.324c0-0.008 0-0.017 0-0.027 0-9.416 7.633-17.049 17.049-17.049 0.009 0 0.019 0 0.028 0h102.399c0.008 0 0.017 0 0.027 0 9.416 0 17.049 7.633 17.049 17.049 0 0.009 0 0.019 0 0.028v-0.001 85.324c0 0.008 0 0.017 0 0.027 0 9.416-7.633 17.049-17.049 17.049-0.009 0-0.019 0-0.028 0h0.001zM426.676 379.751h-68.276v51.2h68.276zM682.676 465.076h-102.4c-0.008 0-0.017 0-0.027 0-9.416 0-17.049-7.633-17.049-17.049 0-0.009 0-0.019 0-0.028v0.001-85.324c0-0.008 0-0.017 0-0.027 0-9.416 7.633-17.049 17.049-17.049 0.009 0 0.019 0 0.028 0h102.399c0.008 0 0.017 0 0.027 0 9.416 0 17.049 7.633 17.049 17.049 0 0.009 0 0.019 0 0.028v-0.001 85.324c0 0.008 0 0.017 0 0.027 0 9.416-7.633 17.049-17.049 17.049-0.009 0-0.019 0-0.028 0h0.001zM665.6 379.751h-68.276v51.2h68.276zM904.551 465.076h-102.4c-0.008 0-0.017 0-0.027 0-9.416 0-17.049-7.633-17.049-17.049 0-0.009 0-0.019 0-0.028v0.001-85.324c0-0.008 0-0.017 0-0.027 0-9.416 7.633-17.049 17.049-17.049 0.009 0 0.019 0 0.028 0h102.399c0.008 0 0.017 0 0.027 0 9.416 0 17.049 7.633 17.049 17.049 0 0.009 0 0.019 0 0.028v-0.001 85.324c0 0.008 0 0.017 0 0.027 0 9.416-7.633 17.049-17.049 17.049-0.009 0-0.019 0-0.028 0h0.001zM887.476 379.751h-68.276v51.2h68.276zM221.876 294.4h-102.4c-0.008 0-0.017 0-0.027 0-9.416 0-17.049-7.633-17.049-17.049 0-0.009 0-0.019 0-0.028v0.001-85.324c0-0.008 0-0.017 0-0.027 0-9.416 7.633-17.049 17.049-17.049 0.009 0 0.019 0 0.028 0h102.399c0.008 0 0.017 0 0.027 0 9.416 0 17.049 7.633 17.049 17.049 0 0.009 0 0.019 0 0.028v-0.001 85.324c0 0.008 0 0.017 0 0.027 0 9.416-7.633 17.049-17.049 17.049-0.009 0-0.019 0-0.028 0h0.001zM204.8 209.076h-68.276v51.2h68.276zM443.751 294.4h-102.4c-0.008 0-0.017 0-0.027 0-9.416 0-17.049-7.633-17.049-17.049 0-0.009 0-0.019 0-0.028v0.001-85.324c0-0.008 0-0.017 0-0.027 0-9.416 7.633-17.049 17.049-17.049 0.009 0 0.019 0 0.028 0h102.399c0.008 0 0.017 0 0.027 0 9.416 0 17.049 7.633 17.049 17.049 0 0.009 0 0.019 0 0.028v-0.001 85.324c0 0.008 0 0.017 0 0.027 0 9.416-7.633 17.049-17.049 17.049-0.009 0-0.019 0-0.028 0h0.001zM426.676 209.076h-68.276v51.2h68.276zM682.676 294.4h-102.4c-0.008 0-0.017 0-0.027 0-9.416 0-17.049-7.633-17.049-17.049 0-0.009 0-0.019 0-0.028v0.001-85.324c0-0.008 0-0.017 0-0.027 0-9.416 7.633-17.049 17.049-17.049 0.009 0 0.019 0 0.028 0h102.399c0.008 0 0.017 0 0.027 0 9.416 0 17.049 7.633 17.049 17.049 0 0.009 0 0.019 0 0.028v-0.001 85.324c0 0.008 0 0.017 0 0.027 0 9.416-7.633 17.049-17.049 17.049-0.009 0-0.019 0-0.028 0h0.001zM665.6 209.076h-68.276v51.2h68.276zM904.551 294.4h-102.4c-0.008 0-0.017 0-0.027 0-9.416 0-17.049-7.633-17.049-17.049 0-0.009 0-0.019 0-0.028v0.001-85.324c0-0.008 0-0.017 0-0.027 0-9.416 7.633-17.049 17.049-17.049 0.009 0 0.019 0 0.028 0h102.399c0.008 0 0.017 0 0.027 0 9.416 0 17.049 7.633 17.049 17.049 0 0.009 0 0.019 0 0.028v-0.001 85.324c0 0.008 0 0.017 0 0.027 0 9.416-7.633 17.049-17.049 17.049-0.009 0-0.019 0-0.028 0h0.001zM887.476 209.076h-68.276v51.2h68.276zM221.876 123.724h-102.4c-0.008 0-0.017 0-0.027 0-9.416 0-17.049-7.633-17.049-17.049 0-0.009 0-0.019 0-0.028v0.001-85.324c0-0.008 0-0.017 0-0.027 0-9.416 7.633-17.049 17.049-17.049 0.009 0 0.019 0 0.028 0h102.399c0.008 0 0.017 0 0.027 0 9.416 0 17.049 7.633 17.049 17.049 0 0.009 0 0.019 0 0.028v-0.001 85.324c0 0.008 0 0.017 0 0.027 0 9.416-7.633 17.049-17.049 17.049-0.009 0-0.019 0-0.028 0h0.001zM204.8 38.4h-68.276v51.2h68.276zM443.751 123.724h-102.4c-0.008 0-0.017 0-0.027 0-9.416 0-17.049-7.633-17.049-17.049 0-0.009 0-0.019 0-0.028v0.001-85.324c0-0.008 0-0.017 0-0.027 0-9.416 7.633-17.049 17.049-17.049 0.009 0 0.019 0 0.028 0h102.399c0.008 0 0.017 0 0.027 0 9.416 0 17.049 7.633 17.049 17.049 0 0.009 0 0.019 0 0.028v-0.001 85.324c0 0.008 0 0.017 0 0.027 0 9.416-7.633 17.049-17.049 17.049-0.009 0-0.019 0-0.028 0h0.001zM426.676 38.4h-68.276v51.2h68.276zM683.128 123.724h-102.4c-0.008 0-0.017 0-0.027 0-9.416 0-17.049-7.633-17.049-17.049 0-0.009 0-0.019 0-0.028v0.001-85.324c0-0.008 0-0.017 0-0.027 0-9.416 7.633-17.049 17.049-17.049 0.009 0 0.019 0 0.028 0h102.399c0.008 0 0.017 0 0.027 0 9.416 0 17.049 7.633 17.049 17.049 0 0.009 0 0.019 0 0.028v-0.001 85.324c0 0.008 0 0.017 0 0.027 0 9.416-7.633 17.049-17.049 17.049-0.009 0-0.019 0-0.028 0h0.001zM666.052 38.4h-68.276v51.2h68.276zM891.412 134.656l-73.382-88.037-37.981 37.981-24.124-24.124 51.2-51.2c3.070-3.089 7.321-5 12.018-5 0.020 0 0.040 0 0.060 0h0.768c4.963 0.244 9.341 2.559 12.32 6.092l0.021 0.026 85.324 102.4z" />
</font>
</defs>
</svg>
