<?xml version="1.0" encoding="utf-8"?>
<!-- Generator: Adobe Illustrator 27.2.0, SVG Export Plug-In . SVG Version: 6.00 Build 0)  -->
<svg version="1.1" id="Layer_1" xmlns="http://www.w3.org/2000/svg" xmlns:xlink="http://www.w3.org/1999/xlink" x="0px" y="0px"
	 viewBox="0 0 340 250" style="enable-background:new 0 0 340 250;" xml:space="preserve">
<style type="text/css">
	.st0{fill:#293745;}
	.st1{fill:#FF4723;}
</style>
<g>
	<g>
		<path class="st0" d="M13,157.2v-38.7H4.7v-11.6H13v-2.1c0-11.8,7.2-18.1,16.9-18.1c3.9,0,7.2,0.8,9.6,2.1l-2.7,9.8
			c-1-0.7-2.5-1-4.3-1c-3.7,0-6.2,2.4-6.2,7.3v2.1h10.2v11.6H26.2v38.7H13V157.2z M78.1,157.2v-30.6c0-7-3.6-9.2-9.3-9.2
			c-5.2,0-9.3,2.9-11.5,5.8v34H44V87.7h13.3v25.6c3.2-3.7,9.4-7.7,17.6-7.7c11,0,16.4,6,16.4,15.8v35.7L78.1,157.2L78.1,157.2z"/>
	</g>
	<g>
		<path class="st0" d="M100,91.6c0-4.4,3.6-7.9,7.9-7.9c4.4,0,7.9,3.5,7.9,7.9s-3.5,7.9-7.9,7.9C103.6,99.5,100,95.9,100,91.6z
			 M101.3,157.2v-50.3h13.2v50.3H101.3z"/>
	</g>
	<g>
		<path class="st0" d="M127.4,139c4.5,4.7,11.7,7.5,18.2,7.5c8,0,12.4-3.5,12.4-8.5c0-5.3-4-7.8-13.2-7.8c-2.8,0-7.2,0-8.2,0.1
			v-12.2c1.2,0.1,5.6,0.1,8.2,0.1c7.3,0,12.1-2.4,12.1-7.3c0-5.2-5.3-7.9-12.2-7.9c-6.4,0-12.1,2.5-16.8,6.9l-6.9-8.7
			c5.3-6,13.6-10.5,25.2-10.5c15.4,0,24.9,6.9,24.9,17.9c0,8.3-7.1,13.7-14.4,15c6.7,0.7,15.4,5.9,15.4,15.8
			c0,11.3-10.2,19.3-26,19.3c-12.1,0-21.1-4.6-26-10.6L127.4,139z"/>
		<path class="st0" d="M207.2,90.8c8,0,14.7,2.8,19.4,6.8l-6.3,10.6c-3.6-3.4-7.3-5.2-13.1-5.2c-10,0-16.5,8.6-16.5,19
			c0,0.5,0,1,0.1,1.4c3.1-4.4,9.7-8.4,16.9-8.4c11.8,0,22.4,7.2,22.4,21.2c0,12.8-10.2,22.6-25.2,22.6c-20,0-28.4-15.4-28.4-34
			C176.5,104.9,187.8,90.8,207.2,90.8z M203.7,126.6c-4.9,0-9.7,2.5-12.8,6.3c0.6,6.3,4.1,13.6,13.4,13.6c7.6,0,11.6-5.1,11.6-9.8
			C215.9,129.7,210.1,126.6,203.7,126.6z"/>
		<path class="st0" d="M260.9,90.8c18.8,0,27.2,17,27.2,34s-8.5,34-27.2,34c-18.9,0-27.2-17.1-27.2-34S242,90.8,260.9,90.8z
			 M260.9,103.2c-9.5,0-13,9.4-13,21.5s3.6,21.6,13,21.6s12.9-9.5,12.9-21.6S270.3,103.2,260.9,103.2z"/>
	</g>
</g>
<g>
	<path class="st1" d="M213.3,247c-35.4,0-68.9-15.3-92.2-42l10.3-8.9c20.6,23.7,50.5,37.4,81.9,37.4c59.8,0,108.4-48.6,108.4-108.4
		S273.1,16.7,213.3,16.7c-32.3,0-62.7,14.3-83.4,39.1L119.5,47C142.8,19,177,3,213.4,3c67.3,0,122,54.7,122,122S280.6,247,213.3,247
		"/>
</g>
</svg>
